<?xml version="1.0" encoding="utf-8"?>
<!-- Generator: Adobe Illustrator 23.0.3, SVG Export Plug-In . SVG Version: 6.00 Build 0)  -->
<svg version="1.1" id="Layer_1" xmlns="http://www.w3.org/2000/svg" xmlns:xlink="http://www.w3.org/1999/xlink" x="0px" y="0px"
	 viewBox="0 0 19 80.5" style="enable-background:new 0 0 19 80.5;" xml:space="preserve">
<g>
	<path d="M3.8,79.7c1.5-0.4,4.9,0,5.3,0c0.5,0,1.2,0.1,2.1,0.1c1.1,0.1,2.3,0.1,3.3,0.2c1,0.1,1.5,0.3,1.9,0.4c0.1,0,0.1,0,0.2,0.1
		c2.1-0.3,2.5-2.2,2.4-3.2c-0.2-1.2-3.5-10-5.1-14.6c-1-2.6-2.8-12-2.2-17.3c1.2-4-0.5-12.7-2.2-18.5c-1.4-5.8-0.6-11.8-0.5-15
		c0.7-2.2,1.3-5.1,1-7.7l1.1-0.4c0,0,1.4-1.1,1.4-1.7c0,0-0.8-0.6-1.4-1.5L9.5,0.5C9.4,0.6,9.3,0.7,9.3,0.8C9.2,0.7,9.2,0.6,9.1,0.5
		L2.1,0C0.6,1.1,0.5,4.1,0.3,4.8C0.1,5.6,0,10.4,0,10.3c0,2.1,0.9,7.3,3.4,15.8c0.5,8.7,1.4,18.5,2.4,25.3C6.7,58.3,6.1,67.7,6,70.2
		c-0.1,2.2-1.1,6.6-3.1,9.4C3.1,79.8,3.4,79.8,3.8,79.7z"/>
</g>
</svg>
