<?xml version="1.0" encoding="utf-8"?>
<!-- Generator: Adobe Illustrator 23.0.3, SVG Export Plug-In . SVG Version: 6.00 Build 0)  -->
<svg version="1.1" id="Layer_1" xmlns="http://www.w3.org/2000/svg" xmlns:xlink="http://www.w3.org/1999/xlink" x="0px" y="0px"
	 viewBox="0 0 18.5 89.2" style="enable-background:new 0 0 18.5 89.2;" xml:space="preserve">
<g>
	<path d="M13.5,87.5c0.2-0.4,0.6-0.9,0.6-1.3c0-0.8-0.4-2.4-0.8-3.8c-0.3-0.5-0.7-0.7-0.7-0.7l-3.4,0.7c0,0,0,0-0.6,0.7
		c-0.5,0.6,0.4,1.2,0.6,1.8c0.2,0.8-0.4,1.7-0.1,2.5c0.2,0.4,0.6,1,0.9,1.3c0.6,0.5,2,0.7,2.6,0.1C13.1,88.5,13.3,87.9,13.5,87.5z"
		/>
	<path d="M7.1,0L0.6,1.5C0.4,2,0.3,2.6,0.1,3.5c-0.4,3.1,0.7,6.7,1.9,9.3c0.5,3.2,2,8.9,1.4,14.9c-1,6.1-1.6,14.9,0.1,18.7
		c1.3,5.1,0.6,14.7,0,17.4c-0.7,3.6-2.1,9.6-2.8,13l7.2,3.8v0.2c0.2-0.1,0.4-0.1,0.7-0.2c-0.1,0.5-0.2,1-0.3,1.2
		c0.4,0.6,0,0.5,1,0.3c1.2-0.3,3.2-0.6,3.7-1.1c1.3,0.8,2.3,1.9,2.9,3.2c0.2,0.4,2,0.7,2.4,0.1s0.3-2.7-1-5c-3-2-4.6-7-5-9.5
		s-2.1-11.6-2.1-18.6c0.2-6.9-0.2-16.7-0.7-25.4C11,17,11.2,11.7,10.9,9.6c-0.6-2.3,0.1-4.9-0.6-5.5C10,3.8,9.7,2.5,9.2,1.4L7.1,0z"
		/>
</g>
</svg>
