<?xml version="1.0" encoding="utf-8"?>
<!-- Generator: Adobe Illustrator 23.0.3, SVG Export Plug-In . SVG Version: 6.00 Build 0)  -->
<svg version="1.1" id="Layer_1" xmlns="http://www.w3.org/2000/svg" xmlns:xlink="http://www.w3.org/1999/xlink" x="0px" y="0px"
	 viewBox="0 0 80.7 107.5" style="enable-background:new 0 0 80.7 107.5;" xml:space="preserve">
<g>
	<path d="M61.7,44.6c-7.4,1.8-9.4,10.5-10,12.7c-1.2,0.8-2.6,1.3-3.4,2.2c-0.2,1.9-0.2,3-2.9,5.1c-1.6,1.2-3.3,1.5-4.5,1.6l0,0
		c-1.2,0-3-0.3-4.6-1.4c-1.1-0.8-1.8-1.4-2.3-2c1,0.6,2.2,1,3.3,1.2c0.4,0.1,0.8,0.1,1.3,0.1l0,0c0.4,0,0.8,0,1.2-0.1
		c1.7-0.3,3.5-1,4.5-2s1.2-2.1,1.2-2.5S45.3,59,45.3,59s0-0.5-0.9,0c-0.8,0.6-3.6,1.1-4.6,1.1c-0.4,0-0.9,0-1.3,0l0,0
		c-0.5,0-0.9,0-1.3,0c-1,0-3.8-0.6-4.6-1.2c-0.9-0.5-0.9,0-0.9,0l0,0c-0.7-0.4-1.5-0.7-2.2-1.2c-0.8-2.1-3.6-10.8-11.2-12.4
		C11.2,45.5,6.5,48.1,4.4,50c-2.7,2.6-5.2,5-4.2,8.5C1,61.7,2.1,65.6,2.1,67c0.4,1.5,1.5,2.9,3.5,3.8c2.4,2.5,2.5,2.4,3.2,6.3
		c0.4,0.2,0.7,0.3,0.9,0.3c0.2,0,0.4-0.1,0.5-0.1c0.1-0.1,0.2-0.1,0.3-0.1c0.1,0,0.1,0.2,0,0.9c-0.3,2-0.7,3.3-0.2,4.2
		c1.4,0.6,3.9,1.9,5.4,2.3c1.4,2.1,1.7,3.9,3,5.4c0,0.1,0.1,0.2,0.2,0.3c0.3,0.3,0.7,0.5,1,0.7c0.5,0.3,1,0.4,1.5,0.4s1-0.2,1.3-0.6
		c1.1-1.2,1.5-1.9,3-1.9c0.3,0,0.6,0,1,0.1c1.4,0.4,2.5,0.4,3.4,0.4c0.2,0,0.3,0,0.5,0s0.3,0,0.4,0c0.4,0,0.7,0,0.9,0.1
		c1,0.8,2.5,2.7,4,3.5c-0.2,1.4-1.3,4.6-5.5,6.8c-1.2,0.6-1.7,1-2.2,1c-0.4,0-0.8-0.3-1.6-1c-0.5-0.8-1-1.3-1.3-1.7
		c-0.2-0.5-0.3-1-0.4-1.6c0-0.1,0-0.2-0.1-0.3c0.1-0.4,0.2-0.8,0.3-1.3c1.1-3.1,2.2-3.9,2.6-4.8c0.4-0.9-1-0.7-2.4-0.7
		c-0.5,0.4-0.8,0.7-1.2,1c-0.1,0.1-0.3,0.3-0.4,0.4c-0.3,0.3-0.6,0.6-1,0.9c-0.9,0.2-2,0.4-2.9,0.4c-0.8,0-1.4-0.2-1.2-0.7
		c-0.6,1.7-0.9,3.1-0.2,3.5c0.8,0.6,0.9,1.5,1.3,3.9s1.3,5.9,4.2,7.4c1.4,0.6,3.9,1.4,5.7,1.3c0.5,0,1-0.1,1.4-0.2
		c2-1.2,3.8-2.9,5.3-5.3c2.1-2.6,4.7-5.4,4.8-5.4c0.6,0.2,0.5,1.1,1.1,1.2h0.4c0.6-0.1,0.4-1,1-1.2c0.2,0,3,2.7,5.3,5.2
		c1.7,2.4,3.7,4.1,5.8,5.2c0.4,0.1,0.9,0.2,1.4,0.2c1.9,0,4.3-0.8,5.6-1.5c2.7-1.6,3.3-5.1,3.5-7.5c0.1-2.4,0.2-3.4,0.9-4
		c0.7-0.4,0.3-1.8-0.5-3.5c0.2,0.6-0.3,0.7-1.2,0.8c-0.8,0-2-0.2-2.9-0.4c-1.2-0.8-1.7-1.4-2.9-2.3c-1.3,0.1-2.8-0.1-2.3,0.8
		c0.5,0.9,1.7,1.6,3,4.7c0.1,0.4,0.3,0.7,0.3,0.9s-0.1,0.4-0.1,0.7c0,0.6-0.1,1.1-0.3,1.7c0,0.1,0,0.1,0,0.2c-0.3,0.4-0.6,0.8-1,1.5
		c-0.7,0.7-1.1,1-1.5,1c-0.5,0-1-0.5-2.3-1c-4.4-2.1-5.7-5.2-6.1-6.7c1.4-0.9,2.8-2.8,3.6-3.6c0.2-0.1,0.5-0.1,0.9-0.1
		c0.1,0,0.3,0,0.4,0c0.2,0,0.3,0,0.5,0c0.9,0,2-0.1,3.3-0.5c0.4-0.1,0.7-0.1,1-0.1c1.4,0,1.9,0.7,3.1,1.9c0.3,0.4,0.8,0.5,1.3,0.5
		c0.8,0,1.7-0.4,2.4-1.1c1.4-1.5,1.4-3.4,2.7-5.7c1.5-0.5,3.9-1.8,5.2-2.4c0.5-1-0.1-2.2-0.6-4.2c-0.2-0.7-0.2-0.9-0.1-0.9
		s0.1,0.1,0.3,0.1c0.1,0.1,0.3,0.1,0.6,0.1c0.2,0,0.5-0.1,0.9-0.3c0.4-4,0.4-3.8,2.6-6.4c1.9-1,2.8-2.4,3.1-3.9
		c-0.2-1.4,0.6-5.2,1.1-8.5c0.7-3.5-2.1-5.9-5-8.4C73.7,47.2,68.8,44.7,61.7,44.6z M44.2,77.7c-0.1-0.1-0.3-0.2-0.4-0.3
		c-0.3-0.4-0.1-0.9,0.5-1.2h0.1c0.7,0,0.8,1.1,0.8,1.2l0,0c0,0-0.1,0.1-0.3,0.4c0,0.1-0.1,0.1-0.1,0.1
		C44.5,77.8,44.3,77.8,44.2,77.7z M44.4,79.7c0,0-0.2,0.4-0.6,0.4s-0.2-0.4-0.2-0.7c0-0.2,0.1-0.3,0.3-0.3c0.1,0,0.2,0,0.3,0.1
		C44.7,79.4,44.4,79.7,44.4,79.7z M45.5,73c0,0-0.2,0.4-0.5,0.7c-0.1,0-0.1,0.1-0.2,0.1c-0.3,0-0.8-0.6-1.2-1.1
		c-0.2-0.7,0.3-0.9,1.2-1.1C45.6,71.8,45.7,72.8,45.5,73z M38.1,68.5c0.1,0.6-0.4,0.9-1,1.2H37c-0.9,0-1.7-0.6-1.7-0.6
		s0.3-1.2,1.4-1.2C37,67.9,37.5,68,38.1,68.5L38.1,68.5z M39.1,79.3c0.1,0,0.1,0.1,0.2,0.2v0.1c0,0.3,0.3,0.7-0.1,0.7
		s-0.6-0.4-0.6-0.4s-0.3-0.3,0.1-0.5c0.1-0.1,0.2-0.1,0.3-0.1H39.1z M46.7,69c0,0-0.7,0.6-1.6,0.6H45c-0.7-0.2-1.2-0.5-1.2-1.2
		c0.6-0.5,1-0.6,1.4-0.6C46.3,67.8,46.7,69,46.7,69z M37.7,73.8c-0.1,0-0.1,0-0.2-0.1c-0.4-0.3-0.6-0.7-0.6-0.7
		c-0.2-0.2-0.2-1.1,0.6-1.5c0.8,0.1,1.2,0.3,1.3,0.8c0,0.1,0,0.2-0.1,0.3C38.4,73.2,38,73.8,37.7,73.8z M39.1,77.5
		c-0.5,0.3-0.6,0.5-0.8,0.5c-0.1,0-0.1,0-0.2-0.2c-0.4-0.4-0.4-0.4-0.4-0.4s0-1.2,0.7-1.2h0.1C39.1,76.6,39.4,77.1,39.1,77.5z"/>
	<path d="M46.8,44.4c1.5-0.7,2.4-1,1.9-1.5c-0.7-0.4-1.5-0.6-2-0.3c-0.9-0.4-2-0.7-2.2-0.6c-0.6,0.2-1-0.6-1.6-0.1
		c-1.1,0.7-2.8,1.4-4.6,1.1c-0.1,0-0.1,0.1-0.2,0.1L37.9,43c-1.7,0.3-3.5-0.5-4.6-1.2c-0.6-0.6-1,0.2-1.6,0
		c-0.2-0.1-1.3,0.1-2.2,0.5c-0.6-0.2-1.3-0.1-2,0.3c-0.5,0.5,0.4,0.8,1.9,1.6c1.2,0.7,1.4,0.7,2.2,0.8c0.6,0,0.3,0.4,0.4,1
		c-0.1,0.4-0.5,0.7-0.3,1.9c1.1,1.2,6.3,1.5,6.3,1.5s0.1,0,0.2-0.1c0.1,0,0.1,0.1,0.1,0.1s5.1-0.1,6.2-1.3c0.2-1.2-0.2-1.4-0.3-1.9
		c0.1-0.6-0.2-1,0.3-1C45.5,45.1,45.6,45,46.8,44.4z"/>
	<path d="M33.2,58.5c1.3,0.8,3.8,0.9,5.2,1l0,0c1.4,0,3.9-0.1,5.2-0.8c1.8-1,1.5-1.1,1.2-1.8c0-1.1,0.3-1.9,1.3-2.3
		c1.8-0.7,2.3-1.6,2.8-2.6c0.9-1,1.4-2.1,0.4-1.8c-1.2,0.6-3.4,1.4-3.9,1.5c-0.8,0.3-5.4,2-6.9,1.4c-0.1,0-0.1,0-0.2,0l0,0h-0.1
		c-1.5,0.5-6.1-1.3-6.9-1.7c-0.5-0.1-2.8-1-3.9-1.6c-1-0.4-0.5,0.8,0.5,1.8c0.5,1.1,1.1,2,2.9,2.7c0.9,0.4,1.3,1.2,1.3,2.3
		C31.7,57.4,31.4,57.4,33.2,58.5z"/>
	<path d="M43.1,38.7c-1,0.2-2.6,0.5-3.1,0.5c-0.2,0-1.1,0-2,0l0,0c-0.9,0-1.7-0.1-1.9-0.1c-0.5,0-2.1-0.4-3.1-0.6
		c-1-0.2-0.7,1.2-0.7,1.2V40c0,0,0.1,0.1,0.6,0.8c0.7,0.9,2.9,1.6,3.4,1.7c0.3,0,1.1,0.1,1.8,0.1l0,0c0.7,0,1.5,0,1.7-0.1
		c0.5,0,2.7-0.7,3.4-1.5c0.5-0.7,0.6-0.8,0.6-0.8v-0.3C43.9,39.9,44.1,38.5,43.1,38.7z"/>
	<path d="M44.3,48.5c-0.5,0.3-3.3,1-3.9,1c-0.3,0-1.2,0-2.2-0.1l0,0c-0.9,0-1.8,0-2.1,0c-0.6,0-3.4-0.8-3.9-1.1
		c-0.6-0.1-0.8,1.3-0.8,1.3s-0.1-0.9,0,0.4c0.1,1.3,0.9,1.3,1.4,1.5s3.3,1,3.6,1.1c0.2,0,1.2,0.1,2,0.1l0,0c0.7,0,1.7,0,1.9-0.1
		c0.3,0,3.1-0.7,3.6-0.9s1.2-0.1,1.3-1.4c0.1-1.3,0-0.4,0-0.4S44.9,48.5,44.3,48.5z"/>
	<path d="M43.6,36.8c0.6-0.2,2.1-0.4,2.4-0.9c0.8-0.2,1.9-0.3,1.9-1c-0.6-0.8-1.3-1-2.1-1.2c-1.3-0.6-1.8-1.1-2.6-1
		c-1.3,0.3-3.8-0.1-4.6-0.1c-0.2,0-0.5,0.1-0.7,0.1s-0.4-0.1-0.6-0.1c-0.8,0-3.3,0.3-4.6-0.1c-0.7-0.1-1.3,0.3-2.5,0.9
		c-0.8,0.2-1.5,0.3-2.1,1.1c0,0.7,1.2,0.8,2,1c0.3,0.5,1.8,0.7,2.4,1c0.4,0.2-0.4,0.2,0,1.1c1.2,1.1,5.5,1.2,5.5,1.2s0.1,0,0.2,0
		l0,0h0.1c0,0,4.3,0,5.4-1C44.1,37,43.2,37,43.6,36.8z"/>
	<path d="M40.6,24.3c-2.1-0.2-2.5-0.1-2.6-0.1c0,0-0.1,0-0.2,0h-0.1c0,0-0.4-0.2-2.6,0c-2.6,0.2-2.4,1.3-2.4,2.1s-0.5,0.8-1.4,1.1
		c-0.7,0-1.3,0.3-1.5,1.2c0.2,0.8,0.7,0.8,1.4,0.7c0.7-0.1,0.5,0.4,1.2,0.4c1.1-0.5,5.4-0.6,5.4-0.6s0.1,0,0.2,0l0,0h0.1
		c0,0,4.3,0.3,5.5,0.8c0.7,0.1,0.5-0.5,1.2-0.3c0.7,0.1,1.2,0.1,1.3-0.7c-0.2-0.8-0.9-1.2-1.5-1.2c-0.9-0.4-1.4-0.3-1.5-1.2
		C42.9,25.7,43.2,24.6,40.6,24.3z"/>
	<path d="M43.5,21.7c0.8,0,2.4,0.3,2.5-0.5c-1-1-1.7-1.1-1.9-1.7c-0.6-0.8-1.1-1.2-1.3-1.3c-0.4-0.2-4-0.8-4.9-0.6h-0.1h-0.1
		c-0.9-0.3-4.4,0.2-4.9,0.4c-0.2,0.2-0.7,0.5-1.3,1.3c-0.2,0.5-0.9,0.6-1.9,1.6c0.1,0.8,1.7,0.6,2.5,0.6c0.4,0.3-0.1,0.4,1,0.4
		c0.7-0.4,4.6-0.3,4.6-0.3s0.1,0,0.2,0l0,0l0,0c0,0,3.8,0,4.6,0.5C43.5,22,43.1,22,43.5,21.7z"/>
	<path d="M42.7,4.2c-0.1-0.8-2.9-2.5-5.2-2.2h-0.1l0,0c-2.3-0.4-5,1.2-5.1,2.1c0.8,0.4,1.1,0.9,1.1,1.5c-0.1-0.1-0.2-0.2-0.2-0.3
		c0,0.1,0,0.3,0,0.4c-0.1,0-0.1,0.2-0.1,0.5l0,0l0,0l0,0c0,0.1,0,0.3,0.1,0.4h0.1c-0.1,0.3-0.2,0.5-0.3,0.7c1.5-1.4,4.4-1,4.4-1
		s0.1,0,0.2,0l0,0c0.2,0,2.9-0.3,4.4,1.2c-0.1-0.2-0.2-0.4-0.3-0.7h0.1c0-0.1,0.1-0.3,0.1-0.4l0,0l0,0c0-0.2,0-0.4-0.1-0.5
		c0-0.1,0-0.3,0-0.4c0,0.1-0.1,0.2-0.2,0.3C41.7,5.1,42,4.6,42.7,4.2z"/>
	<path d="M41.7,11.3c0.2-1,0.2-1.1,0.4-1.4c-0.6-0.5-2.6-1.7-4.5-1.6l-0.1,0.1l-0.1-0.1c-1.9-0.2-3.8,1-4.4,1.4
		c0.2,0.4,0.3,0.5,0.5,1.4c2,1.6,0.7,3.4,0,4.2c-0.4,0.6-0.6,0.3,0,0.7c0.5-0.6,4-0.6,4-0.6s0,0,0.1-0.1h0.1c0,0,3.5,0.1,4.1,0.7
		c0.6-0.3,0.4-0.1,0-0.7C41.2,14.7,39.7,12.8,41.7,11.3z"/>
	<path d="M37.4,0L37.4,0c-0.8,0-2.9,0.1-3.2,0.3c-0.4,0.4-0.5,0.6-0.7,0.9c-0.4,0.3-0.8,0.3-0.9,0.8s-0.3,0.9-0.1,1.2
		c0.7-0.4,2.7-1.7,4.3-1.4c0.2,0,0.4,0,0.6,0.1l0,0l0,0h0.2l0,0c0.2,0,0.4,0,0.6,0c1.5-0.2,3.6,1.1,4.3,1.6c0.2-0.3,0-0.7-0.2-1.2
		c-0.1-0.5-0.5-0.5-0.9-0.8c-0.1-0.3-0.3-0.5-0.7-0.9C40.4,0.1,37.9,0,37.4,0z"/>
	<path d="M43.2,8.4c0,0-0.1-0.1-0.2-0.2c-1.9-1.6-3.1-1.6-3.9-1.8c-0.3-0.1-1-0.1-1.6-0.1l0,0c-0.6,0-1.2-0.1-1.4,0
		c-0.8,0.1-2,0.1-3.8,1.7c-0.1,0.1-0.2,0.2-0.2,0.2s1,0.8,1,1.2c0.4-0.3,2.7-1.8,4.6-1.6l0,0c1.9,0,4.1,1.4,4.5,1.7
		C42.2,9.2,43.2,8.4,43.2,8.4z"/>
	<path d="M42.4,17.1c0,0-0.6-1.4-4-1.3c-0.3,0-0.6,0-0.8,0l0,0c-0.2,0-0.4,0-0.7,0C33.5,15.6,33,17,33,17s-0.2,0.4,0.2,0.7
		c0.2-0.3,3.7-0.4,4.2-0.4c0.1,0,0.1,0,0.2,0l0,0l0,0h0.1v-0.1c0.1,0,0.2,0,0.2,0c0.5,0,4.1,0.3,4.2,0.6
		C42.6,17.5,42.4,17.1,42.4,17.1z"/>
	<path d="M42.8,23.7c0-0.1,0.1-0.3,0.1-0.3c0-0.1-0.1-1.2-1.3-1.3c-0.8-0.1-2.4-0.3-3.8-0.3l0,0c-1.4,0-2.9,0.1-3.6,0.2
		c-1.2,0.1-1.3,1.2-1.3,1.3c0,0,0,0.2,0.1,0.3c0,0.1,0.4,0.5,1,0.6c0.5-0.3,2.8-0.3,3.7-0.3c0.1,0,0.1,0.1,0.2,0.1l0,0l0,0H38v-0.1
		c0.1,0,0.2-0.1,0.2-0.1c0.8,0.1,3.2,0.1,3.7,0.4C42.3,24.2,42.7,23.8,42.8,23.7z"/>
	<path d="M37.9,32.3L37.9,32.3L37.9,32.3c0.3-0.1,0.4-0.1,0.6-0.1c1,0.1,4.1,0.4,4.6,0.2c0.5-0.3,0.6-0.7,0.6-0.8s0-0.3,0-0.3
		s-0.1-1.2-2.4-1.5c-0.8-0.1-2.1-0.3-3.3-0.3l0,0c-1.2,0-2.4,0.1-3.2,0.2c-2.4,0.2-2.4,1.4-2.4,1.4s0,0.2,0,0.3s0.1,0.5,0.6,0.9
		c0.5,0.2,3.6,0,4.6-0.1C37.6,32.2,37.7,32.3,37.9,32.3L37.9,32.3L37.9,32.3z"/>
</g>
</svg>
