<?xml version="1.0" encoding="utf-8"?>
<!-- Generator: Adobe Illustrator 23.0.3, SVG Export Plug-In . SVG Version: 6.00 Build 0)  -->
<svg version="1.1" id="Layer_1" xmlns="http://www.w3.org/2000/svg" xmlns:xlink="http://www.w3.org/1999/xlink" x="0px" y="0px"
	 viewBox="0 0 102.9 88.5" style="enable-background:new 0 0 102.9 88.5;" xml:space="preserve">
<path d="M101.3,10.5c-0.5,0.1-1,0.2-1.4,0.5c-1,0.6-4.8,4.3-1.9,10.9c0.3,0.2,0.7,0.2,1,0.1c0.2,0,0.4-0.1,0.6-0.2
	c0.2-0.1,0.5-0.3,0.6-0.4c0.4-0.6,0.4-3.3,0.4-5.2c0.3-1.2,0.9-3,1.7-3.4c0.2-0.1,0.4-0.1,0.6-0.1L101.3,10.5z"/>
<path d="M39.1,5.3c-0.7,0-1.1,0.6-1.1,0.6s0.1,0.4,0,0.7S37.8,7,38.5,8c0.9,0.8,3,2.4,4,3.2c1,0.9,2.8,0.5,4,0.4
	c0.9,0.9,1.9,1,3.1,0.9s0.8-0.9,0.9-1.7c-0.1-0.3-0.4-0.1,0-1.4c0.3-1.8-1.7-2-2.7-2.3c-0.9-0.3-0.4,0-1.3,0.3
	c-0.8,0.3-5.8-1.2-6.3-1.5C39.7,5.6,39.7,5.3,39.1,5.3z"/>
<path d="M50.5,0.1c-0.5,0.2-0.8,0.5-0.8,0.5s-0.2,0.5,0.2,1.2c0.4,0.7,1.5,1.9,2.4,2c0.6,0.1,1.3,0.3,1.7,0.4l0,0h0.1
	c0.1,0,0.2,0,0.2,0V4.1c0.4-0.1,1-0.2,1.6-0.3c0.9-0.1,2-1.2,2.3-1.9s0.1-1.2,0.1-1.2S58,0.4,57.5,0.2C56.9,0,56.7,0.4,56,0.5
	c-0.7,0.2-2,0-2,0h-0.1l0,0c-0.3,0-1.2,0.1-1.8,0C51.3,0.3,51-0.1,50.5,0.1z"/>
<path d="M60.9,38.2c-0.2-0.7-0.1-1.8,0.3-2s0.7-0.1,1.2-0.3c0.1-0.3,0-0.7-0.1-1.3c0.1-0.8,0.3-1-0.3-1.4c-0.9-0.9-0.9-1.7-0.8-2.5
	c0.2-0.6,0.7-1.4,0.8-1.8c0-0.3-0.3-1.1-0.8-1.4c-1.3-0.8-0.9-2.1-0.8-2.7c0.1-0.4,0.4-0.9,0.4-1.3c-0.1-0.2-0.3-0.5-0.7-1.2
	c0-0.6,0-1-0.2-1.5v-0.1c0-0.2,0-0.4,0-0.5v-0.1c0.2-0.6,0.5-1.2,0.6-1.6c-0.1-0.2-0.5-0.7-1-1.6c-0.3-0.8-0.4-1.6-0.3-2.3
	c0.4-0.4,0.6-0.6,0.5-1.1c-0.1,0-0.8,0-1.5-0.2c-0.5-0.3-1-0.9-1.1-1.4c0.7-1.4-0.2-2.8,0.1-3.2c0.3-0.5,1.5-0.9,1.8-1
	s0.5-0.1,0.5-0.5c-0.1-0.1-1.3-0.5-2.1-0.8c-0.6-0.2-3.3,1.1-3.3,1.1s-0.1,0-0.3,0h-0.1c-0.1,0-2.8-1.4-3.4-1.2
	c-0.8,0.2-2,0.6-2,0.7c0.1,0.3,0.3,0.4,0.6,0.5c0.3,0.1,1.6,0.6,1.8,1c0.3,0.5-0.6,1.8,0.2,3.2c-0.1,0.5-0.5,1.1-1,1.4
	c-0.7,0.1-1.4,0.1-1.5,0.1c-0.1,0.4,0.1,0.7,0.5,1.1c0.1,0.7,0.1,1.4-0.2,2.3c-0.4,1-0.8,1.5-0.9,1.6c0.1,0.3,0.4,1,0.6,1.5
	c0,0.3,0,0.5,0.1,0.8c-0.2,0.5-0.2,0.9-0.2,1.5c-0.3,0.7-0.5,1.1-0.6,1.2c0.1,0.4,0.3,0.9,0.5,1.3c0.1,0.6,0.6,1.9-0.7,2.7
	c-0.5,0.3-0.8,1.1-0.8,1.4c0.1,0.4,0.6,1.2,0.8,1.8c0.1,0.9,0.1,1.7-0.7,2.5c-0.5,0.4-0.4,0.7-0.2,1.4c-0.1,0.6-0.2,1-0.1,1.3
	c0.5,0.2,0.8,0.1,1.2,0.3c0.4,0.2,0.5,1.3,0.3,2c-0.2,0.8-0.4,1.5-0.3,2c-0.5,0.4-0.9,0.5-0.8,0.7c0.2,0.8,0.1,1.7,0,1.9
	c0.5,0.1,0.7,0,1,0.4c0.2,0.6,0,1.7,0.3,2.4c-0.2,0.8-0.3,0.9-0.2,1.1c0.6,0.2,1.1,0.8,1.1,0.9c0.5,0.2,0.9,0.4,1,1.3
	c0.1,0.9,0.3,2.1,0,2.6l0.4,0.5c0,0,0.1,0,0.2,0.1c0.3,0.3,1,0.9,0.6,1.9c0.7-0.1,3.1-0.2,3.1-0.2s0.1,0,0.2,0l0,0
	c0.3,0,2.5,0.2,3.1,0.3c-0.4-1,0.2-1.6,0.5-1.8c0.1-0.1,0.2-0.1,0.2-0.1l0.4-0.5c-0.3-0.5-0.2-1.7-0.1-2.6c0.1-0.9,0.5-1.1,1-1.3
	c0-0.1,0.6-0.7,1.1-0.8c0.2-0.2,0-0.4-0.2-1.1c0.3-0.7,0.1-1.8,0.2-2.4c0.3-0.4,0.5-0.3,1-0.4c-0.1-0.2-0.2-1.1-0.1-1.9
	c0.1-0.2-0.3-0.3-0.8-0.8C61.3,39.7,61.1,39,60.9,38.2z"/>
<path d="M50.8,3.6c-0.4,0.1-0.5,0.4-0.5,0.8c0,0.1,0,0.1,0,0.2v0.1c0,0.3,0.1,0.7,0.6,1c0.6,0.5,1.3,0.8,2.2,1
	c0.3,0.1,0.6,0.1,0.8,0.2l0,0H54c0.1,0,0.2,0,0.3,0V6.8c0.3,0,0.6-0.1,0.8-0.1c0.9-0.2,1.6-0.5,2.2-0.9c0.4-0.3,0.5-0.6,0.5-0.9
	c0-0.1,0-0.2,0-0.3s0-0.1,0-0.2c0-0.4-0.2-0.7-0.5-0.8c-0.5,0-0.5,0-1,0.4c-0.5,0.2-0.7,0.2-1.1,0.4c-0.3,0-0.7,0.2-1.2,0.1l0,0
	c-0.4,0-0.7-0.1-0.9-0.1c-0.4-0.2-0.6-0.2-1.1-0.5C51.3,3.6,51.3,3.6,50.8,3.6z"/>
<path d="M9.8,5.8c0.4-0.2,1.7-0.6,2.3-0.7c0.3,0,0.6,0,1.1,0c0.5,0.1,1.2,0.1,1.9,0c2.2-0.6,7.1-0.8,9.7-0.6
	c2.6,0.3,5.8,0.4,7.9,0.9c1,0.1,2.7,0,4.2-0.1c1.4-0.1,2.6-0.2,3-0.1c0.6,0.1,2.1,0.2,4,0.7c2.5-0.1,6.1-1,6.1-1s0.1-0.7,0.4-1.6
	c0-0.7-1-1.5-1.4-1.9c-0.6-0.4-0.9,0-1.4,0c0,0-0.9,0-1.9,0c-0.8,0-1.7,0-2.2,0c-1.2-0.1-2.1,0.3-3.2,0.6c-1.9,0.3-7.7-0.2-9.3-0.7
	c-1.7-0.3-4,0.4-6.1,0.5c-2.7-0.4-6.2,0.4-8,0.6c-1.7-0.1-6.2-0.1-7-0.1C9.3,2.4,9,2.4,8.8,3.2C8.8,3.9,9.2,5.4,9.8,5.8z"/>
<path d="M29.7,13.6c4.2,3.2,11.5,4.2,15.5,4.3c0.2,0,0.5,0,0.7,0c1,0,1.7-0.1,2-0.2c0.9-0.8,1.3-2.9,0.8-3.4s-1.1-0.6-2-0.4
	c-0.9,0.2-9.1,1.2-13.9-2.7c-1.2-1-2-2.2-2.2-3.2c-0.3-1.1-0.4-1.8,0.1-2.1s-2.8-0.7-2.8-0.7S24.2,9.3,29.7,13.6z"/>
<path d="M23.9,16.5c1.6,3.9,7.2,6,8.8,6.8c1.2,0.4,4.1,1.4,6.9,2.6c3.3,1.5,7.3,1.1,8.4,0.5c0.3-1.1,0.2-2.5-0.9-3.1
	c-0.9,0.3-5.1-0.1-6.2-0.1s-5.8-2.7-7.6-3.5c-1.8-0.8-5.7-3.5-5.9-4.3c-0.1-0.5,1.1-1.4,1.8-1.8c-1.3-0.7-2.8-3.4-2.8-3.4
	s-0.7,0.5-1.6,1.1C23.9,12,23.3,13.9,23.9,16.5z"/>
<path d="M19.4,22.7c0.3,3.8,3.3,5.4,4.9,6.8c1.5,1.5,4.4,2.4,7.2,3.2c0,0-0.1,0-0.1,0.1h0.1c0.6,0.2,1.2,0.3,1.7,0.5
	c3.4,1.2,5.6,0.3,7.3,0.1c1.6-0.2,4.6-0.4,6-0.6c1.3-0.8,0.9-1.9,0.5-3.1c-0.6-0.9-1.7-0.6-4.3,0c-2.1,0.8-5.7,0.5-7.9,0.7
	c-0.1,0-0.3-0.1-0.5-0.1c-0.1,0-0.3-0.1-0.4-0.1c-1.6-0.5-3.5-1.4-4.7-2.1c-2.5-0.8-5.4-4.1-6.3-5.2c-0.9-1.9,0.9-3.7,1.3-4.3
	c0-0.4-0.6-1.6-0.6-1.6l-0.5-1c0,0-1.5,1.3-2.5,2.2C19.8,18.9,19.4,21,19.4,22.7z"/>
<path d="M18.1,34.1c1,2.1,5,3.8,6.1,4.3c1.8,1.6,8.2,3.1,8.8,3.2c0.6,0.2,3.1,1,4.3,1c0.9,0,7.8-2.2,9.3-2.4s0.8-0.9,1.2-2.6
	c0.1-1.7-0.8-1.3-1.4-1.4c-0.4,0.1-3.9,1.1-5.6,1.7c-1.1,0.3-4.2,1.3-5.9,1.5c-1.2,0.2-2.1-0.3-4.6-0.9c-3.7-1.2-7.3-4.1-8.6-5.5
	c-2.3-2.6-1.1-4.9-0.8-5.9c-0.7-0.6-1.5-2.6-1.5-2.6s-1.7,1.9-2.3,3.6C16.5,29.8,17,32,18.1,34.1z"/>
<path d="M15.5,41.5c0.8,2.1,6.9,6,7.9,6.3s7.7,2.6,9.2,2.9c1.5,0.3,5.2,0.8,7.1,0.3s3.4-2.1,5-2.9c1.6-0.8,2.2-1.2,2.9-1.9
	c0.8-0.7,0-0.6,0.3-2.2c0.2-1.7-1.3-0.6-2.3-0.3c-0.2,0.2-0.7,0.5-1.3,0.9c-0.2,0.1-0.4,0.2-0.5,0.3c-1.3,0.9-3,1.9-4,2.3
	c-1.6,0.7-5.3,0.6-8.5-0.1c-3.5-0.5-9.2-3.6-11.6-5.4c-2.4-1.8-1.7-5.1-1.4-6.1c-0.6-0.4-1.5-2.8-1.5-2.8s-0.8,1.6-1.5,2.9
	C14.7,37,14.9,39,15.5,41.5z"/>
<path d="M13.7,43.5c-0.9,2.1-0.5,3.4,0.7,6.1c1.2,2.8,2.9,3.7,3.8,4.1c0.8,0.4,6.3,3.6,8.8,4.4c2.5,0.8,5.9,1,7.8,0.7
	c0.2,0,0.5-0.1,0.8-0.2c0.5-0.2,0.9-0.4,1.3-0.6c0.6-0.3,1.2-0.7,1.7-1.1c0.5-0.3,0.9-0.6,1.3-1c0.1-0.1,0.2-0.2,0.2-0.2
	c0.2-0.2,0.4-0.3,0.5-0.4c0.4-0.4,1.3-1.3,2.4-2.2c0.3-0.2,0.6-0.4,0.9-0.7c0.1-0.1,0.3-0.3,0.4-0.4c1.5-1.2,2.9-2.4,3.4-2.7
	c1-0.7,1-1.3,1.1-2c-0.4-0.4-1-0.3-1.8,0.1c-0.6,0.1-6,3.6-6.5,3.9c-0.5,0.3-1.4,0.7-1.9,1c-0.4,0.2-1.7,1.5-3.5,2.8
	c-1.3,0.9-3.5,1.2-5,1.1c-2.3-0.1-10.4-4.5-12.2-6c-1.5-1.3-1.2-4.7-1-6.1c-0.4-0.5-2.1-2.1-2.1-2.1S14.7,41.5,13.7,43.5z"/>
<path d="M15.2,59.2c0.1,1.3,0.6,1.2,1.9,2.5c1.1,0.5,4.5,2.5,5.5,3.2s3.2,1,4.2,1.7c0.8,0.3,2.3-0.2,4.1-0.5
	c1.3-0.3,2.8-1.7,5.1-3.4c0.6-0.6,1.6-1.5,2.9-2.5c0.3-0.2,0.5-0.4,0.8-0.6c1.7-1.3,3.4-2.6,4.4-3.1c1.1-0.5,4-0.9,6-0.9
	c1-0.1,0.7-0.7,1.2-2.1c0-1.9-1.5-0.8-2.6,0s-2.7,0.7-4.3,0.7c-1.1,0-3.5,1.8-3.5,1.8s-2.2,1.8-3,2.5s-4.2,2.9-6.5,4.2
	c-1.8,1-2.6,0.7-5.5-0.1c-4.2-0.5-7.8-4.2-8.2-5c-0.2-0.5,0.3-1.1,0.8-2.7c-0.8-1-2.5-1.9-2.1-1.6c0,0-0.2,0.5-0.5,1.1
	C15.6,55,15,57.9,15.2,59.2z"/>
<path d="M15.5,64.1c-0.6,2,0.7,3.1,2.7,5.4c2.1,2.8,4.6,3.5,6.4,4.2c1.6,0.3,2.6-0.1,3.9-1.1c0.4-0.5,3.8-3,6.7-5.1
	c0.3-0.2,0.8-0.4,1-0.7c0.5-0.4,1-0.7,1.4-1c2.9-2.1,7.2-2.8,9.9-3.3c1.6-0.3,2.2-0.3,2.8-1.3c0.6-1.4-0.2-2.5-1.1-2.7
	c-1,0.3-1.9,1.1-3.4,1.5c-1.2,0.2-4.3,0.9-5.9,1.2c-1.3,0-3.4,2.1-4.3,2.8c-0.5,0.4-3.8,2.5-4.7,2.7c-0.5,0.1-2.5,1.8-4,2.7
	c-0.2,0.2-0.4,0.3-0.6,0.4h-0.1l0,0c-0.7,0.3-1.4,0.4-2.5,0.2c-1-0.2-4-2.8-4.6-4.1c-0.1-0.8,0.5-1.2,0.7-2.3
	c-0.5-0.5-2.7-1.6-2.7-1.6S16.2,63.2,15.5,64.1z"/>
<path d="M17,74.3c0.1,1.4-0.2,2.5,0.5,5.1c1.8,3.5,4.5,4.1,6.5,4.2c5.5-2.3,5.6-9.8,5.3-10.7c-0.4,0.2-2.1,0.8-3,1.6
	c-0.3,0.5-0.7,2.7-1.7,4.2c-1,1.2-1.5,0.6-2.7,0c-2.3-1.4-1.9-5.2-1.8-6.3c-0.5-0.5-2.8-2.7-2.8-2.7S16.9,72.9,17,74.3z"/>
<path d="M22.1,86.4c0.1,0.6,0.2,0.7,0.5,0.6c0.3,0,0.5-0.1,0.6-0.3c0.1,0,0.1-0.1,0.2-0.1c0.5-0.8,0-1,0.4-2.7
	c-0.1,0.3-1.8-0.3-1.8-0.3v0.7C22.1,84.2,22,85.5,22.1,86.4z"/>
<path d="M51,68.7c1.4-1.5-0.4-2.8-0.4-2.8s-1,0.1-1.3,0.5s-6.2,3.6-7.8,4.7c-1.4,0.8-4.2,2.7-5.8,4c-1.4,0.8-2.9,3.3-4.3,5.2
	c-0.3,1.3-1.9,3.7-2.7,5.9c0,2.3,1.2,1.5,1.8,1.1c0.5-0.3,2.4-2.1,4-5.1c1.8-3.4,4.2-4.4,7.1-6.9C43.9,73,49,70.2,51,68.7z"/>
<path d="M32.9,16c-1.2-0.4-3.7-1.6-3.7-1.6l-1.3,0.7c0,0,0,0,0,0.4s4.5,3.2,5.6,3.6C34,18.6,33.7,17.2,32.9,16z"/>
<path d="M24.6,19c-1.3,1.1-1.3,3.1-1.3,3.1s2.3-0.8,3.9-1.5C26.4,20.5,25.3,19.5,24.6,19z"/>
<polygon points="27.3,26.3 30.8,25.4 31.8,23.4 31,23.4 25.6,24.5 "/>
<path d="M21.1,27.5c-0.1,0.4-0.5,1.6-0.5,2.1c1-0.2,2.1-0.8,2.1-0.8c-0.5-0.4-1.5-1.4-1.5-1.4S21.1,27.4,21.1,27.5z"/>
<path d="M27.1,36.6l0.7-0.3c0,0,0.8-2.2,1.2-3.6c-0.6-0.1-3.3-1.6-3.3-1.6l-3.8,1.5C22.4,33.8,27.1,36.6,27.1,36.6z"/>
<path d="M18.5,39.3c2.4-0.4,3.8-1.1,3.8-1.1s-3.5-1.7-3.6-2.1C18.7,36.1,18.3,38.3,18.5,39.3z"/>
<path d="M26.1,43.5c0,0-0.1-1.6,0.6-3.2c-0.3,0-0.5-0.3-0.5-0.3l-5.4,1.8l3.3,2.2C24.1,44.1,24.7,44,26.1,43.5z"/>
<path d="M44.4,20.2c1.1-0.3,3,0.1,3.9,0.4c-0.1-1-0.4-2-0.9-2.3c-0.2,0.1-4.6-0.1-4.6-0.1s-1,0-1.5,0c-0.5,0.2-7.8,1.2-7.8,1.2
	s3.6,2.1,4.2,2.2C38.5,21.6,42.6,21,44.4,20.2z"/>
<path d="M33.5,11.3c0.7-0.2,3.8-1.4,4.8-1.5c1.7,0,1.9,0,1.9,0s-0.5-0.7-1-0.9s-0.9-0.8-1.3-1c-0.7,0-2,0-3.3,0.3
	c-1.6,0.4-3,0.6-3,0.6S32.8,11.2,33.5,11.3z"/>
<path d="M38.6,26.1c0.6-0.1-2.7-1.5-2.7-1.5s-3.7,0.6-4.4,0.9c-0.7,0.3-3.9,1.2-3.9,1.2l2.3,1.4C29.9,28.1,38.1,26.3,38.6,26.1z"/>
<path d="M35.7,35.7c1.6-0.6,3-1,3.8-1.5c0.7-0.5,0.7-0.5,0.7-0.5s-0.6-0.3-1.7,0.1c-1.1,0.3-3.1,0.5-4.1-0.1
	c-0.9,0.6-1.5,0.8-2.4,1.2c-0.9,0.4-4.2,1.8-4.2,1.8s1.8,0.9,1.9,1.1C29.8,38,34.7,35.9,35.7,35.7z"/>
<path d="M18.1,49.6c0,0,1,1.2,2.1,1.4c0-0.5,1.9-1.7,3.2-2.8c0,0-1-0.3-2.7-1.5C19.9,47.2,18.1,49.6,18.1,49.6z"/>
<path d="M36.1,42.8c-0.2,0.2-2.7-0.6-3.8-1.1c-0.8,1.1-7.6,2.6-7.6,2.6s1.7,0.9,3.5,1.5C28.7,46,33.8,43.8,36.1,42.8z"/>
<path d="M21.9,60.5c0.1-0.5,1.9-2,3-2.8c-0.6,0.1-3-1.4-3-1.4l-2.3,2.6C19.7,58.9,21,60.1,21.9,60.5z"/>
<path d="M25.1,53.5c0,0,1.8,1,3.3,1.5c0.2-0.2,4.3-2.9,5.8-3.6c-0.5,0.1-4.1-0.9-4.1-0.9L25.1,53.5z"/>
<path d="M20.1,66.7c0,0,1.3,1.3,1.9,1.6c0.9-1.1,2-1.9,2.3-2.3c-1.5-0.6-2.7-0.9-2.7-1.4C20.9,65.3,20.1,66.7,20.1,66.7z"/>
<path d="M27.9,59.9c-2.4,1.3-3,1.9-3,1.9s2.3,0.9,2.6,0.8c0.8-0.5,4.2-1.2,4.7-0.8c0.8-0.5,2.2-1.7,2.2-1.7
	C33,59.6,30,58.5,27.9,59.9z"/>
<path d="M22.4,78.6c0.7,0.5,1.4,0.7,1.8-0.2c0.6-1.2,1.6-3.2,1.3-3.8c-0.4-0.4-1.1-0.3-1.1-0.3s-0.3,0.6-0.7,1.4
	C23.4,76.5,22.3,77.6,22.4,78.6z"/>
<polygon points="25.1,24.5 31.2,23 27.4,21 23.3,22.5 "/>
<path d="M21.6,32.2c0.6-0.3,3.1-1.2,3.7-1.4c-0.6-0.4-2.2-1.8-2.4-1.8c-0.8,0.6-2.3,1.1-2.3,1.1S21.1,31.8,21.6,32.2z"/>
<path d="M20.2,41.5c0.7-0.2,5-1.3,5.6-1.6c-0.4-0.2-2.8-1.5-2.8-1.5l-4.3,1.4C18.8,39.8,19.7,41.3,20.2,41.5z"/>
<path d="M93,6.5c0.7,0.1,1.4,0.1,1.9,0.1c0.4,0,0.8-0.1,1.1,0c0.6,0.1,2,0.6,2.3,0.8c0.5-0.3,1-1.9,0.9-2.6C98.9,4,98.7,4,98.1,3.9
	c-0.8-0.1-5.2-0.2-7-0.2c-1.8-0.3-5.3-1.2-8-0.9C81,2.6,78.7,1.9,77,2.1c-1.6,0.4-7.4,0.7-9.3,0.3c-1.1-0.3-2.1-0.8-3.2-0.7
	c-0.5,0-1.4,0-2.2,0c-1,0-2,0-1.9-0.1c-0.5,0-0.8-0.4-1.4,0c-0.4,0.3-1.3,1.1-1.3,1.8C58,4.2,58.1,5,58.1,5s3.6,1,6.2,1.2
	c1.9-0.5,3.3-0.5,3.9-0.6c0.4,0,1.6,0.1,3,0.3c1.5,0.2,3.2,0.3,4.2,0.3c2.1-0.4,5.2-0.4,7.9-0.6C85.9,5.4,90.8,5.8,93,6.5z"/>
<path d="M60.2,7.5c-0.9,0.3-3,0.4-2.6,2.2c0.4,1.3,0.2,1.1,0,1.4c0.2,0.7-0.2,1.6,1,1.7s2.1,0,3-0.8c1.2,0.1,3,0.5,4-0.3
	s3-2.3,3.9-3.1c0.7-0.9,0.5-1,0.5-1.3c-0.1-0.3,0-0.7,0-0.7s-0.5-0.7-1.2-0.7s-0.6,0.3-1.1,0.6c-0.5,0.4-5.4,1.7-6.3,1.3
	C60.6,7.5,61.1,7.2,60.2,7.5z"/>
<path d="M80.1,6.1c0,0-3.3,0.2-2.7,0.6c0.6,0.4,0.4,1.1,0.2,2.1c-0.2,1.1-1,2.3-2.1,3.2c-4.7,3.7-13,2.4-13.8,2.2
	c-0.9-0.2-1.5-0.2-1.9,0.3c-0.5,0.5,0,2.6,1,3.4c0.3,0.1,1,0.2,2,0.3c0.2,0,0.5,0,0.7,0c4,0.1,11.2-0.7,15.3-3.7
	C84.1,10.4,80.1,6.1,80.1,6.1z"/>
<path d="M83.5,12.4c-0.9-0.7-1.7-1.2-1.7-1.2s-1.4,2.6-2.7,3.3c0.7,0.4,1.9,1.3,1.9,1.8c-0.2,0.7-4.1,3.3-5.8,4
	c-1.8,0.7-6.4,3.2-7.5,3.2s-5.3,0.2-6.2-0.1c-1,0.5-1.1,1.9-0.8,3c1.1,0.7,5.1,1.3,8.4-0.2c2.7-1.1,5.6-1.9,6.8-2.3
	c1.6-0.7,7.1-2.7,8.6-6.5C85.1,15,84.4,13.1,83.5,12.4z"/>
<path d="M87.7,19.2c-1-0.9-2.5-2.3-2.5-2.3l-0.4,1c0,0-0.6,1.2-0.6,1.6c0.4,0.6,2.2,2.5,1.4,4.4c-0.8,1.1-3.6,4.3-6.1,5
	c-1.1,0.6-3.1,1.5-4.6,1.9c-0.1,0-0.3,0.1-0.4,0.1c-0.2,0-0.3,0.1-0.5,0.1c-2.3-0.3-5.9-0.2-7.9-1c-2.6-0.7-3.7-1-4.3-0.2
	c-0.4,1.2-0.7,2.3,0.6,3.1c1.5,0.3,4.4,0.6,6,0.9c1.7,0.3,3.9,1.2,7.3,0.2c0.6-0.1,1.1-0.3,1.7-0.4h0.1c0,0,0,0-0.1-0.1
	c2.8-0.7,5.6-1.5,7.1-2.9c1.6-1.4,4.5-2.9,4.7-6.7C89.2,22.2,88.7,20.1,87.7,19.2z"/>
<path d="M91,35.4c1-2.1,1.4-4.2,0.7-6c-0.7-1.8-2.4-3.7-2.4-3.7s-0.7,2-1.4,2.6c0.4,1,1.6,3.4-0.6,5.9c-1.3,1.4-4.8,4.1-8.5,5.2
	c-2.4,0.5-3.3,0.9-4.6,0.7c-1.7-0.2-4.9-1.4-6-1.7c-1.7-0.6-5.3-1.7-5.6-1.9c-0.6,0-1.5-0.3-1.3,1.4c0.4,1.7-0.2,2.3,1.3,2.6
	c1.5,0.3,8.6,2.8,9.4,2.8c1.2,0.1,3.7-0.6,4.3-0.8c0.6-0.2,7-1.4,8.7-2.9C86.1,39,90,37.4,91,35.4z"/>
<path d="M90.7,36.9c0.4,1,1.1,4.4-1.2,6.1c-2.4,1.7-7.9,4.6-11.4,5c-3.2,0.6-6.9,0.6-8.5-0.2c-1-0.5-2.7-1.6-4-2.5
	c-0.2-0.2-0.3-0.3-0.5-0.4c-0.6-0.4-1.1-0.8-1.3-1c-1-0.3-2.5-1.5-2.3,0.2c0.3,1.6-0.5,1.5,0.3,2.2s1.3,1.2,3,2
	c1.7,0.9,3.1,2.5,5.1,3.1c2,0.5,5.6,0.1,7.1-0.1c1.5-0.2,8.1-2.3,9.2-2.6c1-0.3,7-4,7.7-6c0.5-2.5,0.7-4.5-0.1-5.8
	c-0.7-1.3-1.6-3-1.6-3S91.3,36.6,90.7,36.9z"/>
<path d="M94.2,43.2c0,0-1.6,1.5-2,2.1c0.3,1.4,0.7,4.7-0.8,6c-1.7,1.5-9.7,5.6-12,5.6c-1.5,0.1-3.7-0.3-5-1.2
	c-1.8-1.3-3.1-2.6-3.6-2.9c-0.4-0.2-1.4-0.8-1.9-1c-0.5-0.3-6-4-6.6-4.1c-0.8-0.4-1.5-0.6-1.8-0.2c0.1,0.7,0.2,1.4,1.2,2.1
	c0.5,0.4,2,1.6,3.5,2.8c0.1,0.1,0.3,0.3,0.4,0.4c0.3,0.3,0.6,0.5,0.9,0.7c1.1,1,2.1,1.9,2.5,2.3c0.2,0.1,0.3,0.3,0.6,0.5
	c0.1,0.1,0.2,0.2,0.2,0.3c0.4,0.4,0.9,0.7,1.4,1c0.6,0.4,1.1,0.8,1.7,1.2c0.4,0.3,0.9,0.5,1.4,0.7c0.3,0.1,0.5,0.2,0.8,0.2
	c2,0.4,5.4,0.3,7.8-0.4s7.8-3.7,8.6-4.1c0.8-0.4,2.6-1.3,3.7-4s1.5-4,0.5-6.1C94.6,42.9,94.2,43.2,94.2,43.2z"/>
<path d="M91.2,56.1c0.5,1.6,1.1,2.2,0.9,2.7c-0.4,0.8-3.9,4.4-8.1,4.7c-2.9,0.7-3.7,0.9-5.5-0.1c-2.4-1.4-5.8-3.7-6.6-4.5
	c-0.8-0.7-3.1-2.6-3.1-2.6s-2.5-1.9-3.6-1.9c-1.6-0.1-3.2-0.1-4.3-0.9c-1.1-0.8-2.6-1.9-2.6-0.1c0.6,1.5,0.3,2,1.3,2.2
	c2,0.1,4.9,0.6,6.1,1.2c1,0.6,2.8,1.9,4.5,3.3c0.3,0.2,0.5,0.4,0.8,0.6c1.2,1,2.3,2,2.9,2.6c2.3,1.8,3.9,3.3,5.2,3.6
	c1.8,0.3,3.3,0.9,4.1,0.6c1-0.7,3.2-0.9,4.2-1.6c1-0.7,4.3-2.5,5.4-3c1.3-1.3,1.8-1.2,1.9-2.4c0.1-1.3-0.5-4.2-0.8-4.8
	c-0.3-0.7-0.5-1.2-0.5-1.2C93.6,54.3,91.9,55.1,91.2,56.1z"/>
<path d="M91,67.2c-0.6,1.3-3.5,3.8-4.5,3.9c-1.1,0.2-1.8,0.1-2.5-0.3l0,0h-0.1c-0.2-0.1-0.4-0.2-0.7-0.4c-1.5-1-3.6-2.8-4.1-2.8
	c-0.9-0.3-4.2-2.4-4.8-2.9c-0.9-0.7-3.1-2.8-4.4-2.9c-1.7-0.3-4.7-1.1-5.9-1.4c-1.5-0.5-2.5-1.3-3.5-1.6c-0.9,0.2-1.6,1.2-1,2.6
	c0.7,1,1.3,1,2.9,1.4c2.7,0.6,7,1.5,10,3.7c0.4,0.3,0.9,0.7,1.4,1c0.3,0.3,0.7,0.6,1,0.8c3,2.2,6.5,4.8,6.9,5.4
	c1.3,1,2.3,1.5,3.9,1.3c1.8-0.7,4.3-1.3,6.2-4c1.9-2.2,3.2-3.3,2.5-5.3c-0.7-0.9-1.6-2.2-1.6-2.2s-2.2,1-2.7,1.5
	C90.5,66,91.1,66.4,91,67.2z"/>
<path d="M90.1,73.6c0.1,1.1,0.7,4.9-1.6,6.3c-1.2,0.6-1.6,1.2-2.7-0.1c-1.1-1.5-1.5-3.8-1.9-4.3c-0.9-0.8-2.6-1.5-3-1.7
	c-0.3,0.9,0,8.3,5.6,10.9c2,0,4.8-0.5,6.4-3.9c0.6-2.6,0.3-3.7,0.4-5.1c0-1.4-0.6-4.6-0.6-4.6S90.6,73.1,90.1,73.6z"/>
<path d="M86.7,85c0.5,1.7,0,1.9,0.5,2.7c0.1,0,0.1,0.1,0.2,0.1c0.2,0.2,0.4,0.3,0.6,0.3c0.4,0.2,0.4,0,0.5-0.6c0.1-0.9,0-2.2,0-2.2
	v-0.7C88.6,84.7,86.8,85.3,86.7,85z"/>
<path d="M68.7,71.5c-1.7-1.1-7.7-4.5-8-4.9s-1.3-0.5-1.3-0.5s-1.7,1.2-0.3,2.8c2,1.6,7.2,4.5,9.8,6.9c3,2.6,5.4,3.6,7.3,7.1
	c1.7,3,3.6,4.9,4.1,5.2s1.8,1.3,1.7-1.1c-0.9-2.2-2.6-4.7-2.9-6c-1.4-2-3-4.5-4.5-5.3C73,74.4,70.1,72.3,68.7,71.5z"/>
<path d="M80.4,16l-1.3-0.7c0,0-2.4,1.1-3.6,1.4c-0.7,1.2-1,2.6-0.5,3.1c1-0.3,5.5-3,5.5-3.4C80.4,16,80.4,16,80.4,16z"/>
<path d="M84,20c-0.7,0.5-1.8,1.4-2.5,1.5c1.6,0.8,3.9,1.6,3.9,1.6S85.3,21.2,84,20z"/>
<polygon points="76.9,24.2 78,26.2 81.5,27.3 83.2,25.5 77.7,24.2 "/>
<path d="M87.8,28.7c0-0.1-0.1-0.1-0.1-0.1s-1,1-1.4,1.4c0,0,1.1,0.6,2.1,0.9C88.3,30.3,87.9,29.1,87.8,28.7z"/>
<path d="M80,33.5c0.4,1.4,1.3,3.7,1.3,3.7l0.7,0.4c0,0,4.6-2.6,5.1-3.8l-3.9-1.6C83.2,32.1,80.6,33.4,80,33.5z"/>
<path d="M90.4,37.4c-0.1,0.4-3.5,2-3.5,2s1.4,0.7,3.8,1.2C90.8,39.6,90.4,37.4,90.4,37.4z"/>
<path d="M88.5,43.1l-5.5-2c0,0-0.1,0.3-0.5,0.3c0.7,1.6,0.7,3.2,0.7,3.2c1.4,0.5,2.1,0.6,2.1,0.6L88.5,43.1z"/>
<path d="M64.2,20.5c1.9,0.9,6,1.7,6.7,1.6c0.7,0,4.2-2.1,4.2-2.1s-7.3-1.3-7.8-1.5c-0.5,0-1.5,0-1.5,0s-4.4,0-4.6-0.1
	c-0.5,0.2-0.8,1.2-0.8,2.3C61.1,20.5,63.1,20.2,64.2,20.5z"/>
<path d="M69,9.4c-0.5,0.2-1,0.9-1,0.9s0.2,0,1.9,0.1c1,0,4.2,1.4,4.8,1.6c0.7-0.1,1.9-2.4,1.9-2.4s-1.4-0.3-3.1-0.7
	c-1.3-0.3-2.6-0.4-3.4-0.4C69.9,8.6,69.5,9.2,69,9.4z"/>
<path d="M72.8,25.3c0,0-3.2,1.2-2.6,1.4c0.5,0.2,8.7,2.3,8.7,2.3l2.3-1.3c0,0-3.3-1-4-1.3C76.5,26.1,72.8,25.3,72.8,25.3z"/>
<path d="M73.4,36.4c1,0.2,6,2.4,6.2,2.3c0.2-0.1,1.9-1,1.9-1s-3.4-1.5-4.3-2c-0.9-0.4-1.6-0.7-2.5-1.3c-1,0.5-3,0.3-4.1-0.1
	c-1.1-0.4-1.7-0.1-1.7-0.1s0,0,0.7,0.5C70.3,35.3,71.8,35.8,73.4,36.4z"/>
<path d="M91.4,50.9c0,0-1.9-2.5-2.7-3C87,49,86,49.3,86,49.3c1.4,1.1,3.3,2.4,3.3,2.9C90.4,52,91.4,50.9,91.4,50.9z"/>
<path d="M73.2,43.4c2.3,1.1,7.5,3.5,8,3.3c1.8-0.6,3.5-1.4,3.5-1.4s-6.8-1.8-7.7-2.9C75.9,42.9,73.4,43.6,73.2,43.4z"/>
<path d="M90.2,60.2l-2.3-2.7c0,0-2.4,1.3-2.9,1.3c1.2,0.9,2.9,2.4,3.1,2.9C88.8,61.3,90.2,60.2,90.2,60.2z"/>
<path d="M79.4,51.4c0,0-3.5,0.9-4.1,0.8c1.5,0.8,5.7,3.6,5.9,3.8c1.5-0.4,3.2-1.4,3.2-1.4L79.4,51.4z"/>
<path d="M90,68c0,0-0.9-1.5-1.6-2.1c0,0.5-1.2,0.8-2.7,1.3c0.4,0.3,1.5,1.3,2.4,2.4C88.7,69.2,90,68,90,68z"/>
<path d="M82.4,63.5c0.3,0.2,2.6-0.7,2.6-0.7s-0.6-0.6-3-2c-2.2-1.5-5.1-0.5-6.5-0.1c0,0,1.4,1.2,2.2,1.8
	C78.2,62.2,81.5,63,82.4,63.5z"/>
<path d="M88,79.8c0.1-1-1-2.1-1.4-2.9c-0.4-0.8-0.7-1.4-0.7-1.4s-0.7-0.1-1.1,0.3c-0.3,0.5,0.8,2.6,1.4,3.8
	C86.6,80.5,87.3,80.3,88,79.8z"/>
<polygon points="77.5,23.8 83.7,25.5 85.4,23.6 81.2,21.9 "/>
<path d="M83.7,31.8c0.6,0.2,3.1,1.2,3.7,1.5c0.4-0.3,1-2,1-2s-1.5-0.6-2.4-1.2C85.8,30.2,84.2,31.4,83.7,31.8z"/>
<path d="M90.4,41.1l-4.3-1.5c0,0-2.3,1.2-2.8,1.4c0.6,0.3,5,1.6,5.7,1.8C89.5,42.5,90.4,41.1,90.4,41.1z"/>
<path d="M3,6.1c1.2-0.5,2.1-0.7,3.1-0.6C7.2,5.6,8.9,6,8.8,4.9C8.3,3.7,8.3,2.3,8.3,2.3c-0.5-0.4-2.2,0-2.2,0L1.3,5.5
	c0,0-1.5,1-1.3,1.9C0.8,7.6,2.2,6.4,3,6.1z"/>
<path d="M97.1,21.6c-1.9-6,1.1-9.8,2.3-10.8c0.5-0.4,1.1-0.6,1.8-0.7l-1.6-2.4c-0.3-0.1-0.7-0.2-1.3,0c-0.6,0.1-1.7-0.5-2.5-1
	c-0.2,0-1.6,0.2-3.7-0.1C88.2,5.8,82.7,6,81,6.1c1.2,0.9,1.3,3.2,1.3,4.4c2.7,1.6,3.2,4.6,3.1,5.9c4.8,3.1,4.6,7.5,4.5,8.9
	c4.3,5.6,2.6,7.3,2.3,8.6l1.2,1c0,0,0.2,0.3,0.5-0.7c0.2-1,0.5-2.2,1.8-4.5c0.8-1.4,0.5-4.6,0.6-6c0.4-0.8,1-0.1,2.1-0.3
	C98.5,22.7,98,23,97.1,21.6z"/>
<path d="M16.1,5.3c-2,0.3-3.5,0-3.7,0c-0.8,0.5-1.9,1-2.5,0.9c-0.9-0.4-1.3,0-1.6,0C7.6,6.1,5.9,5.7,5.2,5.7
	C4.6,5.9,2.7,6.9,1.8,7.5l1.8,1.4C4,8.7,4.3,8.6,4.4,8.5c1-0.2,3.3-0.2,4.5,0.8s4.3,5,2.6,10.9c-0.9,1.3-1.4,1-1.1,1.7
	c1.2,0.2,1.8-0.5,2.1,0.3c0.2,1.4-0.1,4.6,0.8,6.1c1.3,2.4,1.7,3.6,1.9,4.6c0.4,1.1,0.6,0.8,0.6,0.8l1.1-1c-0.4-1.3-2.1-3,2-8.5
	c-0.1-1.4-0.5-5.8,4.2-8.8c-0.2-1.3,0.2-4.3,2.9-5.8c0-1.2,0-3.4,1.1-4.3C25.5,5,20,4.6,16.1,5.3z"/>
<path d="M8.2,9.6c-1.5-1-3.1-0.7-4.1-0.3l2.4,1.8v0.8c0.6,0.7,1.1,2,1.3,3c0.1,1.9,0.2,4.5,0.6,5.2c0.5,0.4,1.6,1,2.2,0.6
	C13.1,14.1,9.2,10.2,8.2,9.6z"/>
</svg>
