<?xml version="1.0" encoding="utf-8"?>
<!-- Generator: Adobe Illustrator 23.0.3, SVG Export Plug-In . SVG Version: 6.00 Build 0)  -->
<svg version="1.1" id="Layer_1" xmlns="http://www.w3.org/2000/svg" xmlns:xlink="http://www.w3.org/1999/xlink" x="0px" y="0px"
	 viewBox="0 0 50.3 37.7" style="enable-background:new 0 0 50.3 37.7;" xml:space="preserve">
<g>
	<path d="M16.4,7.1c-0.5,0.4-0.7,1-1.4,1.5c-1,0.4-3.1,1.3-2.7,2.9c0.7,0.4,1.1,0.9,2,0.5s2.8-0.1,3.9-0.6c1,0,1.8,0.6,2.7-0.2
		c0.9-0.8,0.6-1.5,0.6-1.5c-0.2-0.2-2.3-1.7-3-1.8C17.4,7.6,16.9,6.9,16.4,7.1z"/>
	<path d="M25.5,10.1c0,0-1.7-0.6-2.4-0.4c-0.7,0.2-1.1,0-1.3,0.5c-0.2,0.5-0.4,1.1-0.9,1.3c-0.5,0.2-1.1,0.3-1.8,0.2
		c-0.7-0.1-1.8,0.2-2,0.5c0.4,0.6,0.2,0.9,1.5,1.4s1.5,1.1,2,0.9c0.5-0.7,1.1-1.3,1.8-1.2c0.5-0.4,0.7-0.5,0.9-1
		c0.7-0.5,1.6-1.1,2-1.1c0.7-0.4,1-0.8,0.4-1.1C25.2,9.8,25.5,10.1,25.5,10.1z"/>
	<path d="M20.4,15.9c-0.3-0.8-0.3-0.8-0.3-0.8l-0.5-0.4c0,0-3.4-0.1-4.8,0.6c-0.5,1.3-2.6,2.8-1.3,5.7c0.7,0.5,1.4,1,1.9,0.4
		c0.2-1,0.6-2.1,0.8-2.7c0.2-0.6,1.3-1.5,1.6-1.7C18.1,16.8,20.1,16.3,20.4,15.9z"/>
	<path d="M22.2,17.4c0,0,0,0-0.1-0.3s-0.5-0.6-1.2-0.8c-0.4,0-1.7,0.5-2.7,0.9c-0.5,0.2-0.3,0.9-0.1,1.7c0.2,0.3,1.7,0.6,2.4,0.3
		C20.6,18.5,22.2,17.4,22.2,17.4z"/>
	<path d="M15.8,23.1c1,1.3,0.9,1.2,1.9,1.8c1.1,0.9,1.8,1.3,1.8,0.3s-0.3-1.9,0.1-2.2c0.6-0.2,1.9-0.1,2.2-0.8c-0.3-1-0.3-1-0.3-1
		s-0.1-0.6-1.1-0.9c-0.7-0.5-1.8-0.7-2.6-0.5C16.7,20,15.6,19.3,15.8,23.1z"/>
	<path d="M23.4,13.8c0,0-1.2-0.1-1.7,0.4c-0.5,0.6-0.7,1-0.9,1c0.2,0.5,0,0.7,1,1.1c1.2,0.7,1.1,0.9,1.7,0.9
		c0.8-0.8,0.9-0.7,1.1-1.2c0.6-0.5,1.8-0.6,0.1-1.4c-0.8-0.3-1.1-0.5-1.1-0.5L23.4,13.8z"/>
	<path d="M27.9,13.8c0.7-0.3,0.7-0.4,0.5-0.9c-0.6-0.4-2.2-0.9-2.2-0.9s-0.6-0.2-1.3,0.1c-0.7,0-1.2,0.6-1.4,1.4
		c0,0.5,0.6,0.6,1.2,0.8c0.5,0.1,0.7,0.5,2.1,0.9C27.3,15.1,27.2,14.5,27.9,13.8z"/>
	<path d="M29,12.7c0.2-0.6,0.2-0.9-0.6-1.4c0,0,0,0-0.1,0c-0.3-0.2-0.6-0.4-0.9-0.5c-0.1,0-0.2,0-0.2,0s-1.1-0.1-1.3,0.5
		c0.4,0.3,0.3,0.4,1.3,0.6C28.4,12.6,28.8,13,29,12.7z"/>
	<path d="M22,22.8c-0.4,0.4-1,0.7-1.8,0.6c-0.2,0.3-0.2,0.5-0.3,2.3c-0.2,0.8,0.1,1.2,0.5,1.6c0.7,0.7,5.6,5.2,6.4,6
		c0.4-0.3,0-0.5-0.1-1.2c-0.1-0.6,0.1-1.5,0.3-1.9c0.2-0.4,1.5-1.4,2.2-1.5c0.1-0.7-0.1-0.9-0.9-1.4s-2.1-1.5-2.1-1.5
		s-1.2-1.1-1.7-1.6C24,23.6,23,22.3,23,22.3C23,22.2,22.4,21.4,22,22.8z"/>
	<path d="M27.6,30.6c-0.3,0.8-0.5,2.5,0.2,3.3c0.9,0.9,2.3,2.1,3.5,2c1-0.9,1.4-1.8,1.3-2.7c0.2-0.9,1.4-1.1,1.2-1.7
		c-0.7-1-1.7-1.9-2.5-2.2c-1-0.3-1.2-0.2-1.2-0.2S28.1,29.7,27.6,30.6z"/>
	<path d="M25.1,19.1c-0.6-0.4-1.7-1.3-1.7-1.3s-1.8,0.4-2.2,1.4c-0.3,0.4-0.5,0.6,0,1c1,0.7,2.8,2.1,5.4,3c2.7,1,4,2.1,4.3,1.8
		c0.2-0.3,0.2-1,0.1-2c0.7-0.5,1.6-0.6,1.2-1.3c-1-0.7-0.5-0.6-2.5-1.2C27.3,20,25.7,19.5,25.1,19.1z"/>
	<path d="M34.1,21.1c0.6-0.3,0.6-0.6,0.3-1.1c-0.1-0.6,0.6-0.7,0.5-1.2c-0.8-0.6-1.2-0.6-2.6-0.8c-1.4-0.2-4-1.1-4.5-1.5
		c-0.5-0.3-1-0.8-1-0.8s-0.9,0.1-1.8,0.7c-0.8,0.7-0.9,0.9-0.7,1.3c0.8,0.6,2.7,2,4,2C30.3,19.9,33.7,20.8,34.1,21.1z"/>
	<path d="M38.8,16.2c0.1-0.2,0.6-0.6-0.4-0.9s-2.1,0-3-0.2s-3.2-0.5-4-0.9s-1.7-0.8-1.7-0.8s-2,0.8-2.1,1.6c0.7,1,0.4,1.1,2.6,1.7
		s4.7,0.9,5.5,1.2c1.4,0.5,2.8,1.2,3,0.5C38.7,17.1,38.7,16.4,38.8,16.2z"/>
	<path d="M39.5,12.9c-0.9-0.2-1.5-0.2-2.2-0.2s-1.7,0-2.4-0.4c-0.7-0.4-1.9-1.1-2.9-1.1c-0.9,0.4-0.9,0.4-0.9,0.4S30,12,29.7,12.5
		c0.3,0.6,1.1,1.4,2,1.5c1.7,0.2,3.1,0.4,4.5,0.1c1.4,0.1,1.9,0.3,2.5,0.4C39.5,13.9,40,13.3,39.5,12.9z"/>
	<path d="M34.5,24.6c-0.1-1,0-1.4,0.2-1.7c-0.4-0.6-0.5-0.4-0.5-0.4s-0.9-0.5-1.4-0.6c-0.2,0.4-0.9,1.3-1.1,1.3
		c-0.2,0.4-0.5,1.4,0.1,2.1c1,0.7,1.6,1.1,2.1,1C34.3,25.8,34.7,25.4,34.5,24.6z"/>
	<path d="M35.1,19.3c-0.3,0.5-0.2,1.2,0,1.6c0.6,0.7,1.3,1.3,1.9,1.4c1-0.4,1.3-0.8,1.2-1.3c0.2-0.5,0.8-0.7,0.5-1.1
		c-0.3-0.3-0.7-0.6-0.7-0.6c-0.2-0.2-1-0.1-1.6-0.3C35.4,18.9,35.3,19,35.1,19.3z"/>
	<path d="M39.3,16.6c-0.1,1.3-0.5,1.6,0.7,2.4c1.5,0.4,1.8,0.7,1.8,0.3c0.1-0.4,0-0.5,0-1.1s0.1-1,0.4-1.1c0.2-0.1-0.6-0.8-1.2-1.1
		c-0.6-0.3-0.9-0.3-0.9-0.3S39.5,15.7,39.3,16.6z"/>
	<path d="M42.3,14.5c-0.4-0.6-1-1.2-1-1.2s-0.8-0.2-1.2-0.1c-0.1,0.4-0.4,1-0.6,1.3c0.6,0.6,1.7,1.4,2.1,1.2
		C42,15.3,42.7,15.1,42.3,14.5z"/>
	<path d="M45.5,13c-0.3-0.4-1.1-0.5-1.5-0.3c-0.7,0.1-1.3,0.2-1.6,0.1c-0.4,0.1-0.3,0.4-0.3,0.4l0.5,1.1c0,0,0.3,0.1,0.2,0.5
		c0.4,0.3,0.7,0.6,1,0.4c0.4-0.4,1.6-0.3,1.8-0.4C45.8,14.4,45.8,13.4,45.5,13z"/>
	<path d="M33.5,32.8c-0.4,0.7-0.6,1.1-0.7,2.2c-0.5,0.9,0,1.1,0.4,1.4c1.2,0.4,4.2,1.7,5.6,1.3c1.2-0.4,2.8-2,1.6-3.4
		c-1.8-1.3-2.2-0.9-3.3-1.6c-1.3-0.9-1.9-0.9-1.9-0.9S33.9,32.3,33.5,32.8z"/>
	<path d="M35,25c-0.1,0.6,0,0.7-0.4,1.1c0.6,0.6,2.5,1.2,3.1,1c0.4-1.5,1.5-1.7,0.9-2.6c-0.6-0.8-0.8-0.8-1.8-1.3
		c-1-0.4-1.2-0.4-1.2-0.4S34.3,23.2,35,25z"/>
	<path d="M41.1,22.5c0.2-0.4,0.4-0.6,0.8-0.8c0.1-0.7-0.5-1-1.1-1.3c-0.6-0.2-0.6-0.2-0.6-0.2s-1.1-0.1-1.5,0.7
		c-0.2,1-0.4,1.4,0.3,2.1c1.2,0.7,2.8,1.3,2.8,0.9C41.3,23.2,40.9,22.8,41.1,22.5z"/>
	<path d="M44.3,23.4c0.1-0.6,0.3-0.8,0.2-1.1C44.4,22,44,21.9,44,21.9s-0.9-0.6-1.5-0.5c-0.3,0.4-0.5,0.8-0.9,1.3
		c0.2,0.8,0,1,0.7,1.4c1.1,0.4,1.2,0.6,1.6,0.5C44.3,24.6,44.1,24,44.3,23.4z"/>
	<path d="M44.9,22.1c-0.1,0.5-0.3,1.3-0.3,1.8c0.4,0.8,0.8,1.2,1.4,1.4c1.2,0.1,2.5,0.2,2.6-0.3s-0.2-1.2-1.1-1.9
		c-0.9-0.7-1.3-1-1.3-1S45,21.9,44.9,22.1z"/>
	<path d="M42.6,17c-0.5,0.1-0.5,0.3-0.5,0.6c0,0.3-0.3,1.2,0.2,1.7c0.9,0.7,2,1.5,2.6,1.5c0.7-0.4,0.5-0.8,0.4-1.3s-0.2-0.6,0-0.9
		s-0.3-0.7-0.8-1s-0.8-0.4-0.8-0.4S43.1,17,42.6,17z"/>
	<path d="M45.5,19.8c0.2,0.6-0.1,1.1,0.4,1.3c1.1,0.5,3.3,1.2,3.6,0.6c0.1-0.9-1.1-2-1.7-2.4c-0.5-0.5-1.9-0.8-1.9-0.8
		S45.3,19.1,45.5,19.8z"/>
	<path d="M46.1,14.6c0.6,0.5,0.9,0.9,1.7,0.8c1.2,0.5,2.4,1.3,2.5,0.7c0.1-0.6-0.3-1.4-0.3-1.4s-0.3-0.4-1.7-1
		c-1.7-0.9-2-0.9-2.5-0.8C46,13.6,46.1,14.4,46.1,14.6z"/>
	<path d="M39,25.2c-0.3,0.7-0.7,1.3-0.5,1.9c0.8,0.6,1.3,1.7,2.3,1.8c0.9-0.1,1.2-0.7,1.3-1c0-0.6,0.1-1,0.3-1.1
		c0.2-0.4-0.2-0.8-0.7-1.1c-0.4-0.3-1.5-0.8-1.5-0.8S39,24.1,39,25.2z"/>
	<path d="M42.3,27.3c0.2,0.1-0.2,1.2-0.2,1.7c0.1,0.2,1.5,0.5,2.6,0.6c0.6-0.1,1.2-1,0.9-2.3c-0.7-1-2.8-1-2.8-1
		S42.5,27.2,42.3,27.3z"/>
	<g>
		<path d="M14.9,5.1c-1.2-1-1.2-1-1.2-1s-2-2-3.5-1.2C9.9,3,9.8,3.2,9.6,3.4C8.5,4.6,7.9,5.8,7.7,6.7C7.3,7.1,6.3,7.6,5.5,8.4
			l1.1,2.5l3.8,2.9c0.4-0.7,0.6-1.4,0.6-1.9c0.2-1.5,1.8-3.6,2.6-3.6C15.2,7.6,16.1,6.2,14.9,5.1z"/>
		<path d="M3.8,3.4C5.4,2.5,7.2,1.2,8.2,2c1.2-0.5,1.5-0.9,0.3-1.3C7.4,0.3,5.9-0.9,1.9,1.5C0.7,2.2,0.3,2.7,0,3.2L3.8,3.4z"/>
		<path d="M12.5,12.4c-0.7,0.3-1.2,0.4-1.2,2.2c0,0,0,0,0,0.1c0-0.1-0.2-0.1-0.3-0.2v0.6c0.2-0.2,0.4-0.3,0.4-0.4
			c0.1,1,0,2.1,0.7,2.5c1-0.2,1.2-0.2,1.5-0.9c0.3-0.6,0.2-1.3,0.6-1.5s1.6-0.5,2.1-0.6s1.1-0.6,1.1-0.6s-0.5-1-1.4-1.2
			C15.4,12.6,13,12.8,12.5,12.4z"/>
	</g>
</g>
</svg>
