<?xml version="1.0" encoding="utf-8"?>
<!-- Generator: Adobe Illustrator 23.0.3, SVG Export Plug-In . SVG Version: 6.00 Build 0)  -->
<svg version="1.1" id="Layer_1" xmlns="http://www.w3.org/2000/svg" xmlns:xlink="http://www.w3.org/1999/xlink" x="0px" y="0px"
	 viewBox="0 0 57.4 29.4" style="enable-background:new 0 0 57.4 29.4;" xml:space="preserve">
<g>
	<path d="M47.3,0.7c0.4,1.2,0.6,1.9,0.8,2.9c0.2,1-1.2,2.7-1.8,3.6c-0.6,0.9-2.4,1.8-4.2,1.2c-1.8-0.6-2.8-3.6-3.2-3.7
		c-0.4-0.2-1.7,0.6-1.7,0.6l0.6,1.4c0,0,1.3,1.3,2.3,3c0.9,1.7,0,4.3,0.1,5.2s1.2-0.3,3.6-1.5s3.2-2.3,5.3-1.7
		c2.1,0.6,2.2,0.7,6.6-1.4s-0.8-4.1-2.4-4.9s-2.2-3-3.5-4.2C48.5,0,46.9-0.5,47.3,0.7z"/>
	<path d="M30.7,8c0.7,1.1,1.6,0.7,2.6,1c1,0.9,3,1.2,3.7,1.8c0.8,0.7,1.3,0.4,2.1,0.1c0.8-1.4-1-3-2-3.7c-0.6-0.7-0.6-1.4-1-2
		c-0.5-0.3-1.1,0.2-2.3,0.1c-0.7-0.1-3.2,0.8-3.4,0.9C30.5,6.3,30,6.9,30.7,8z"/>
	<path d="M38.7,11.8c-0.6,0.2-2.9-0.7-3.5-1.1c-0.9,0-1.7,0.8-1.7,0.8s0.5,0.7,1,0.9c0.5,0.2,1.6,1,1.9,1.3c0.4,0.3,0.1,1,0.2,1.7
		c0.2,0.7,0.3,0.8,1.3,1.3c0.8-0.2,1-1.4,1.4-2.4C39.7,12.6,39.3,12.3,38.7,11.8z"/>
	<path d="M28,8.4c0.1,0.6,0.3,0.8,0.7,1.3c0.7,0.1,1.1,0.8,1.5,1.7c0.4,0.3,0.8-0.2,2.2-0.3c1.4-0.1,1.3-0.4,1.8-0.9
		c-0.1-0.4-1.1-1-1.8-1.1c-0.7-0.1-1.3-0.4-1.7-0.8c-0.4-0.3-0.5-1-0.5-1.6c-0.1-0.6-0.5-0.6-1.1-0.9c-0.6-0.4-2.5-0.3-2.5-0.3
		s0.4-0.2-0.3-0.1c-0.7,0.2-0.5,0.6,0.1,1.2C26.7,6.9,27.4,7.7,28,8.4z"/>
	<path d="M31.1,11.9l-0.5,0.3c0,0,0,0-0.5,0.6c0.2,0.5,2.1,1.6,2.4,1.9s1.2,1.5,1.2,2.2s0.2,1.9,0.1,3c0.4,0.7,1.1,0.4,2,0.2
		c2-2.5,0.3-4.7,0.1-6.1C34.5,12.9,31.1,11.9,31.1,11.9z"/>
	<path d="M31.6,16.6c0.3-0.8,0.7-1.4,0.3-1.8c-0.9-0.7-2.1-1.6-2.4-1.7c-0.8,0-1.2,0.2-1.3,0.4c-0.1,0.2-0.1,0.2-0.1,0.2
		s1.3,1.6,1.2,2.4C29.8,16.6,31.3,16.8,31.6,16.6z"/>
	<path d="M31.7,17.4c-0.8-0.4-1.9-0.5-2.7-0.3c-1,0-1.3,0.6-1.3,0.6s0,0-0.5,0.9c0.1,0.8,1.4,1.1,1.9,1.5c0.4,0.4-0.1,1.2-0.4,2.2
		c-0.2,0.9,0.6,0.8,1.9,0.3c1.1-0.3,1-0.2,2.3-1.2C34,17.6,32.7,18.1,31.7,17.4z"/>
	<path d="M27.6,9.8L27.3,10c0,0-0.3,0.2-1.2,0.2c-1.8,0.3-0.7,0.8-0.2,1.5c0.1,0.5,0.2,0.5,0.8,1.5c0.6,0.1,0.6-0.1,1.9-0.4
		c1.1-0.2,0.9-0.4,1.2-0.8c-0.2-0.1-0.3-0.5-0.7-1.3C28.8,10.1,27.6,9.8,27.6,9.8z"/>
	<path d="M26.5,7.6c-0.6-0.5-1.2-0.5-1.2-0.5s-1.7,0-2.4,0.2c-0.3,0.5-0.3,0.6,0.2,1.1c0.6,0.9,0.3,1.5,0.7,1.7
		c1.5,0,1.8-0.3,2.3-0.3c0.7,0,1.3,0.1,1.4-0.4C27.5,8.6,27.2,7.9,26.5,7.6z"/>
	<path d="M24.2,6.7c1,0,1-0.1,1.4-0.2c-0.1-0.7-1.2-1-1.2-1s0,0-0.2,0c-0.3,0-0.7,0-1,0.2h-0.1c-0.9,0.2-0.9,0.5-0.9,1.2
		C22.5,7.3,23,7,24.2,6.7z"/>
	<path d="M28.4,20.4c-0.8-0.2-1.3-0.6-1.6-1.2c0-1.5-0.8-0.9-0.9-0.8c0,0-1.3,1-1.9,1.4s-2.1,1.1-2.1,1.1s-1.6,0.5-2.5,0.8
		s-1.1,0.3-1.2,1.1c0.6,0.3,1.7,1.7,1.8,2.2c0.1,0.5,0.1,1.4-0.1,2s-0.7,0.7-0.4,1.1c0.9-0.6,6.8-3.5,7.7-3.9
		c0.5-0.2,0.9-0.6,0.9-1.4C28.5,20.9,28.6,20.8,28.4,20.4z"/>
	<path d="M17.4,23c0,0-0.2-0.1-1.3-0.2c-0.9,0-2.1,0.6-3,1.4c-0.4,0.5,0.8,1.2,0.8,2.1c-0.3,0.8-0.2,1.8,0.6,3
		c1.2,0.5,2.8-0.3,3.9-0.9c0.9-0.6,1.1-2.3,1-3.2C19.2,24.1,17.4,23,17.4,23z"/>
	<path d="M22.3,18.1c2.8,0,4.9-0.9,6-1.3c0.5-0.2,0.4-0.4,0.2-1c-0.1-1.2-1.8-2.1-1.8-2.1s-1.3,0.6-2,0.7c-0.7,0.2-2.3,0.2-4.9,0
		c-2.1,0-1.5,0-2.7,0.4c-0.5,0.5,0.3,0.9,0.9,1.6c-0.4,1-0.5,1.7-0.4,2.1C17.8,19,19.4,18.2,22.3,18.1z"/>
	<path d="M21.3,14.2c1.3,0.4,3.6-0.3,4.5-0.7c0.2-0.3,0.2-0.6-0.4-1.5c-0.7-0.9-1.6-1.3-1.6-1.3s-0.6,0.3-1.2,0.5s-3.3,0.3-4.7,0.1
		c-1.4-0.2-1.8-0.3-2.8,0c-0.2,0.5,0.4,0.8,0.2,1.3c-0.4,0.4-0.4,0.8,0.1,1.2C15.8,13.6,19.3,13.8,21.3,14.2z"/>
	<path d="M21.5,7.5c0,0-1,0.1-1.9,0.3c-0.9,0.2-3.2-0.3-4.2-0.4s-1.9-0.7-3-0.7s-0.7,0.5-0.6,0.7s-0.1,0.9-0.4,2.3
		c0.1,0.8,1.6,0.5,3.1,0.5c0.9,0,3.4,0.4,5.7,0.5c2.3,0,2.1-0.2,3-0.9C23.3,8.9,21.5,7.5,21.5,7.5z"/>
	<path d="M12.3,5.8c0.5,0,1.1,0,2.5,0.3c1.3,0.7,2.7,1,4.5,1.3c1,0.2,1.9-0.3,2.4-0.9c-0.1-0.5-1.2-1.3-1.2-1.3s0,0-0.8-0.6
		c-1-0.4-2.4,0-3.2,0.2c-0.8,0.2-1.7-0.2-2.4-0.4C13.4,4.2,12.8,4,11.9,4C11.4,4.2,11.7,4.9,12.3,5.8z"/>
	<path d="M16.8,18.6c0.7-0.6,0.7-1.6,0.6-2.1c-0.2-0.1-0.8-1.1-0.8-1.6c-0.6,0-1.6,0.2-1.6,0.2s-0.1-0.2-0.6,0.3
		c0.2,0.3,0.2,0.8-0.2,1.7c-0.5,0.8-0.1,1.2,0.3,1.9C14.9,19.1,15.6,18.9,16.8,18.6z"/>
	<path d="M14.8,11.7c-0.1-0.4-0.2-0.5-1.1-0.6c-0.6,0-1.5-0.3-1.7-0.2c0,0-0.4,0.1-0.8,0.4c-0.4,0.2,0.1,0.7,0.2,1.2
		c-0.2,0.4,0,0.9,0.8,1.6c0.6,0.1,1.4-0.3,2.2-0.8C14.7,12.9,15,12.3,14.8,11.7z"/>
	<path d="M9.8,6.6C9.1,6.7,8.1,7.1,8.3,7.3s0.2,0.6,0.1,1.2C8.2,9.1,8.1,9.2,8.1,9.6S8.4,9.8,10,9.9c1.3-0.5,1-0.9,1.2-2.2
		c0-1-0.5-1-0.5-1S10.5,6.5,9.8,6.6z"/>
	<path d="M9.2,6c0.3,0.3,1.7-0.2,2.4-0.6c-0.1-0.4-0.3-1-0.3-1.5c-0.4-0.2-1.2-0.2-1.2-0.2S9.3,4.1,8.8,4.6C8.3,5.1,8.9,5.6,9.2,6z"
		/>
	<path d="M5.5,4c0.1,0.2,1.3,0.4,1.7,0.9c0.3,0.3,0.7,0.2,1.1,0c0-0.5,0.4-0.5,0.4-0.5l0.7-0.9c0,0,0.1-0.3-0.2-0.5
		C8.9,3,8.4,2.7,7.7,2.4C7.4,2.1,6.6,2,6.2,2.2C5.7,2.4,5.4,3.5,5.5,4z"/>
	<path d="M13.1,25.5c-0.3-0.6-1.4-1.5-1.4-1.5s-0.6-0.2-2.1,0.3c-1.2,0.4-1.5-0.2-3.6,0.6C4.5,26,5.6,28,6.8,28.8
		c1.2,0.8,4.5,0.5,5.8,0.4c0.5-0.2,1-0.2,0.7-1.3C13.4,26.9,13.4,26.3,13.1,25.5z"/>
	<path d="M13.7,18.5c-0.3-0.5-0.1-0.6-0.1-1.2c1.1-1.6-0.2-2.2-0.2-2.2s-0.2-0.1-1.3,0c-1.1,0.1-1.3,0-2.1,0.7
		c-0.8,0.7,0.3,1.3,0.3,2.8C10.9,18.9,12.9,19,13.7,18.5z"/>
	<path d="M8.9,11c-0.7,0-1.4,0.2-1.4,0.9c0.4,0.3,0.6,0.6,0.6,1c0.1,0.4-0.4,0.6-0.9,1.3c-0.1,0.3,1.6,0.3,2.9-0.1
		c0.8-0.5,0.7-0.9,0.7-2c-0.2-0.9-1.3-1.2-1.3-1.2S9.6,11,8.9,11z"/>
	<path d="M5.4,11.4c0,0-0.4,0-0.6,0.3s0,0.5,0,1.2s-0.3,1.2,0.1,1.3c0.4,0.2,0.6,0,1.7,0c0.8-0.3,0.6-0.4,1-1.2
		c-0.3-0.6-0.3-1.1-0.6-1.5C6.5,11.1,5.4,11.4,5.4,11.4z"/>
	<path d="M4.3,13.3c0.1-0.5,0.1-1.4,0.1-1.9C4.3,11.1,3.1,11,3.1,11s-0.5,0.1-1.5,0.5c-1.1,0.4-1.5,1-1.5,1.6s1.3,0.8,2.5,1.1
		C3.3,14.3,3.7,13.9,4.3,13.3z"/>
	<path d="M4.8,10.1c0.6,0.2,1.8-0.2,2.9-0.6c0.6-0.4,0.5-1.4,0.6-1.7c0.1-0.3,0.1-0.5-0.4-0.7C7.5,6.9,6.8,7,6.8,7S6.5,7,5.9,7.1
		c-0.5,0.2-1.1,0.4-1,0.7c0.1,0.3,0,0.4-0.2,0.9C4.6,9.2,4.2,9.5,4.8,10.1z"/>
	<path d="M3.7,10c0.6-0.1,0.4-0.6,0.7-1.1c0.3-0.6-0.2-1.4-0.2-1.4s-1.4-0.1-2,0.2C1.6,8,0.1,8.7,0,9.6C0.2,10.2,2.5,10.1,3.7,10z"
		/>
	<path d="M3.1,3.9c0.8,0.3,1.2,0,1.9-0.3c0-0.2,0.3-1,0.6-1.6C5.2,1.8,4.8,1.7,3,2C1.5,2.2,1.1,2.5,1.1,2.5S0.5,3.2,0.5,3.8
		C0.5,4.4,1.8,4,3.1,3.9z"/>
	<path d="M5.9,16.7c0.2,0.2,0.2,0.6,0,1.2c-0.1,0.4,0.1,1,1,1.4c1,0.3,1.8-0.7,2.7-1c0.4-0.5,0.1-1.3-0.1-2.1c0.2-1-1.1-0.7-1.1-0.7
		s-1.2,0.2-1.7,0.3C6.3,16,5.8,16.2,5.9,16.7z"/>
	<path d="M5.5,19.1c0.1-0.5,0-1.7,0.3-1.7c-0.1-0.2-0.3-1.1-0.3-1.1s-2.1-0.7-3,0.1c-0.7,1.1-0.3,2.3,0.3,2.5
		C3.9,19.1,5.3,19.2,5.5,19.1z"/>
</g>
</svg>
