<?xml version="1.0" encoding="utf-8"?>
<!-- Generator: Adobe Illustrator 23.0.3, SVG Export Plug-In . SVG Version: 6.00 Build 0)  -->
<svg version="1.1" id="Layer_1" xmlns="http://www.w3.org/2000/svg" xmlns:xlink="http://www.w3.org/1999/xlink" x="0px" y="0px"
	 viewBox="0 0 19.6 69.5" style="enable-background:new 0 0 19.6 69.5;" xml:space="preserve">
<g>
	<path d="M3.6,5.4C4.2,5.2,6.2,4.6,7,4.6C7.7,5,8,5.1,8.5,4.9c1.4-1.3-0.1-3.5-0.1-3.5s0,0-0.4-0.2c-0.2,0.3-1.6,0-2.5-0.3
		C4.9,0.6,4.7,0.7,4,0.7C3.5,1.1,3.4,3.3,3.2,4.4C3.1,5.5,3,5,3.6,5.4z"/>
	<path d="M19.5,63.6c-0.3-0.4-0.5-0.8-0.8-1.1c0.7-1.7-0.5-5.6-1.4-9.6c-1.6-4.3-1.6-11.3-2.2-18c-1-5.9-3.4-11.7-6.2-20.5
		C10,2.9,5.6,5.1,5.6,5.1s-1.1,0.2-2.7,1c-0.2,0.6,0,2.2,0.5,4.3H3.3C2.6,7.9,2.1,5.8,2.1,5.8s-0.9-0.8-2-1c0,0.2,0,0.3,0,0.5
		C0,6.6,0,9.2,0.4,10.3c0.4,1.2,0,2.2-0.1,2.5c1,3,1.8,6.5,1.8,8.5c0.2,2.4,0,17.7,1,24.9C4,51.7,5.7,58,5.7,61.1
		c0,2.5-1.4,6.4,1.2,4.5c0.2,0,0.3,0,0.5,0.1c0.1,0,0.1,0,0.2,0.1c-0.2,0.7-0.6,1.8-0.7,2.7c-0.1,0.8,0.7,0.7,0.7,0.7
		s1.1,0.1,1.7,0.3c0.1-0.2,1.1-0.7,1.5-1.1c0-0.2,0.2-1.7,0.3-2.3c-0.1-0.4-0.4-2-1-2.7c-0.3-1.4-0.3-2.9-0.2-3.3
		c-0.3-1-1.1-3.2-1.6-4.4c-0.5-2.3-2.2-16.8-1.7-21.2c0.2-4.3,0.3-9.8-0.4-14.1c1,3.3,2,6.4,2.6,8c0.4,3.6,2,12,2.4,14.9
		c0.4,2.8,1.5,9.3,0.6,13.1c-0.8,2.5-2.1,5.7-1.1,6.9c0.2,0.9,0.5,2,0.6,2.2c0.1,0.3,0.4,0.6,0.4,0.6s1.1-0.5,1.5-0.5
		c0.4-0.3,1-1,1-1c-0.1-0.3-0.3-0.9-0.6-1.4c0.1,0,0.2,0,0.3-0.1c0.1,0.3,0.4,0.5,0.4,0.5s0,0.3,0.2,0.6s0.8,0.8,1.5,1.1
		c0.6,0.1,0.9,0.2,1.8,0.2c0.6-0.4,0-1.1-0.5-2c0-0.1-0.1-0.1-0.1-0.2c0.1,0,0.2,0,0.3,0l0.8,1.3c0,0,0.4,0.6,0.6,0.6
		C18.9,65.1,20,64.7,19.5,63.6z M4.1,13.4L4.1,13.4c0,0.1,0.1,0.3,0.1,0.4C4.2,13.6,4.1,13.5,4.1,13.4z"/>
	<path d="M0.1,3.2c0,0.5,0,0.9,0,1.3c0.1,0,0.2,0,0.3,0.1C1,4.8,1.2,5.1,2.3,5.2c0.8,0.1,0.6-0.6,0.6-0.6l0.4-3.4
		c0,0-0.2-0.4-0.8-0.7C1.7,0.3,0.8,0.1,0.1,0C0.1,0.9,0.1,2.1,0.1,3.2z"/>
</g>
</svg>
