<?xml version="1.0" encoding="utf-8"?>
<!-- Generator: Adobe Illustrator 23.0.3, SVG Export Plug-In . SVG Version: 6.00 Build 0)  -->
<svg version="1.1" id="Layer_1" xmlns="http://www.w3.org/2000/svg" xmlns:xlink="http://www.w3.org/1999/xlink" x="0px" y="0px"
	 viewBox="0 0 17.2 61.2" style="enable-background:new 0 0 17.2 61.2;" xml:space="preserve">
<path d="M11.1,59.5c1.6-1.2-0.8-4.4-2.4-7c-1.8-3.5-2.2-10-2.6-12.9c-0.3-2.8-0.8-11.4-1.3-15c0.2-1.7,0.4-4.9,0.6-8.3
	c0.3,4.3,1.8,9.7,3,13.8c1.6,4.1,3.5,18.6,3.5,20.9c-0.2,1.3-0.5,3.5-0.5,4.6c0.3,0.5,0.8,3.1,0.6,4.7c0.9,1.2,1.7,0.9,2.6,0.6
	c0.2,0,0.4-0.1,0.6-0.2c0.2-0.1,0.3-0.1,0.5-0.2c3,1.4,0.6-2.2,0.1-4.6c-0.7-3-0.6-9.5-1.1-15c-0.8-7.2-4.7-22.1-5.1-24.4
	c-0.8-3-0.7-10.2,0.6-13.4c0.7-2.5-0.1-2.3-1.1-2.9C7.2-0.7,5.8,1.5,5.8,1.5S5.7,5.8,5.7,9.7C5.7,5.9,5.5,2.8,5,2
	C4.4,1.8,3.9,1.7,3.5,1.7L2.9,2L0.5,9.2c0.2,0.6,0.4,1.3,0.7,2.1c-0.6,9.1-1.5,15.2-1.1,21.2c1.1,6.7,2.8,13.5,2.3,18
	c0.1,5.6-0.3,11.4,3,10.1"/>
</svg>
