<?xml version="1.0" encoding="utf-8"?>
<!-- Generator: Adobe Illustrator 23.0.3, SVG Export Plug-In . SVG Version: 6.00 Build 0)  -->
<svg version="1.1" id="Layer_1" xmlns="http://www.w3.org/2000/svg" xmlns:xlink="http://www.w3.org/1999/xlink" x="0px" y="0px"
	 viewBox="0 0 32.1 51.3" style="enable-background:new 0 0 32.1 51.3;" xml:space="preserve">
<g>
	<path d="M16.3,0.7C16.2,1,14.7,2,13.9,2.9c-0.6,0.6,0.2,0.9,0.2,0.9S15,4.5,15.4,5c0.2-0.1,1.3,0,1.8-0.1c0.1-0.2,1.1-1.3,1.5-1.8
		c0.2-0.4,0.7-1.9,0.6-2.8C18.7-0.4,17.2,0.2,16.3,0.7z"/>
	<path d="M20,0.5c-0.3,0.9-0.7,2.2-0.8,2.4c-0.1,0.4,0,0.7,0,0.7s1.2,0.2,1.6,0.5c0.6,0,1.4-0.3,1.4-0.3c0.2-0.6,0.5-2.2,0.2-2.4
		C21.9,0.8,20.3,0.1,20,0.5z"/>
	<path d="M23.3,5.4c0.5,0.4,0.6,0.7,1.4,1.2c0.7,0,0.6-0.8,0.6-1.9c0-2-0.8-2.3-1.7-2.7c-1.2-0.5-0.9,1.1-0.9,1.1s-0.1,0.3-0.1,0.6
		C22.6,4,22.9,4.7,23.3,5.4z"/>
	<path d="M25.7,6.9c0.3,0,1.5,0.3,1.7-0.9c-0.1-1.3-0.1-2.2-0.4-2.5c-0.4-0.4-0.8-0.7-1.1-0.5c-0.4,0.2-0.3,0.8-0.3,0.8l-0.1,2.3
		C25.5,6.1,25.5,6.8,25.7,6.9z"/>
	<path d="M21.9,4.3C21.8,4.5,21,4.5,21,4.5l-0.7,0.1v0.5c0,0,0.4,1.1,0.4,1.7c0.1,0.5,0.7,1,1.6,1c0.6,0.2,1.6,0.9,2.1,1.3
		c0.6-0.1,0.2-0.6,0-1.7c-0.3-0.9-0.8-1.3-1.1-1.8c-0.4-0.5-0.6-0.7-0.7-1.1C22.4,4.1,22,4.1,21.9,4.3z"/>
	<path d="M19.5,6C19.8,6.1,20,5.9,20,5.5c-0.1-0.8-0.1-1.1-0.7-1.5c-0.6-0.2-0.5-0.3-0.9,0c-0.3,0.2-0.6,1.2-0.6,1.2s0,0.3,0.4,0.5
		C18.5,5.6,19.2,5.9,19.5,6z"/>
	<path d="M19.9,6.7c-0.3-0.6-0.8-0.5-1.4-0.7c-0.4-0.1-0.7-0.1-0.7-0.1s-0.2,0.6-0.4,1.6c0,0.8,0,0.5,0.3,1.2c0.3,0,1,0.1,1.9,0.2
		c0.6,0.2,0.5,0.1,0.6-0.4C20.4,7.9,20.2,7.8,19.9,6.7z"/>
	<path d="M14.7,8.7c-0.2,0.4,0,0.6,0.4,0.7s0.4,0.2,1,0.4c0.8,0.7,1-0.5,1.1-0.9c0-0.1-0.1-0.6,0-1.3c0.1-1,0-0.9-0.1-1.9
		c-0.3-0.6-1.1-0.2-1.6-0.1c-0.4,0.2-0.3,1-0.3,1s0.1,0.5,0.1,0.8S15,8.1,14.7,8.7z"/>
	<path d="M12.8,4.6c-0.7,0.9-1.6,1.9-1,2.4c0.5,0.4,0.8,0.5,1.1,1.1l0,0l0,0c0.2,0.7,0,1.2,0.4,1.5h0.1l0,0l0,0
		c0.4,0.1,0.6-0.1,0.7-0.2s0.2-0.9,0.4-1.3c0.3-0.7,0.2-1.1,0.1-1.5c0.1-0.8,0.1-1.2-0.1-1.9c-0.4-0.2-0.6-0.3-0.6-0.3
		S13.5,3.4,12.8,4.6z"/>
	<path d="M24.7,7.3c0,0,0.3,0.7,0.3,1.2c0,0.4,0.2,0.4,0.5,0.1c0.3-0.1,0.5,0.1,1,0.2c0.2-0.1,0-0.5-0.2-1.1
		c-0.4-0.5-0.4-0.3-0.8-0.4C25,7,24.7,7.3,24.7,7.3z"/>
	<path d="M17.1,11.6c0,0-0.2,0.5-0.2,1s0.3,0.9,0.6,0.7c0.4-0.1,0.5,0,1.7,0.1c2,0.1,1-2.4,0.9-3.3c-0.4-1-1.5-0.7-2.4-0.7
		c-0.6,0.1-0.4,0.6-0.4,1.1C17.2,10.8,17.1,11.6,17.1,11.6z"/>
	<path d="M13.1,12.4c0,0.8,0.2,0.9,0.5,1.4c0.4,0.2,1.6,0,2.3,0.3c0.8-0.1,0.5-0.4,0.6-1c0-0.4,0.2-1.5,0.2-2.1
		c0-0.8-1.3-0.9-1.9-1.2c-0.5-0.1-1.2,0.7-1.2,0.7S13.1,11.6,13.1,12.4z"/>
	<path d="M24.6,12.7c0.6,0.2,1.5-0.4,2.2-0.5c0.5-0.1,1-0.4,0.9-0.8c0-0.5-0.7-1.7-0.9-1.9c-0.2-0.2-1.4-0.2-1.4-0.2L24.5,10
		c0,0-0.3,1-0.5,1.7C23.9,12.3,24,12.3,24.6,12.7z"/>
	<path d="M15.6,14.3c-0.6-0.1-1.7-0.1-1.7-0.1s-0.5-0.5-0.9,0.2c-0.2,0.7-0.9,3.7-1,4.3c0,0.7,0.1,2.2,0.1,2.7
		c-0.1,0.7-0.3,2.8-0.4,3.2c-0.1,0.4-0.2,0.9-0.2,0.9s-0.2,0.3,0.1,0.4c0.3,0.2,1-0.1,1.2-0.1s0.8,0,1,0s1.3,0,1.4-0.7
		c-0.1-0.9,0.1-2.3,0.1-3.3c0.3-1.2,0.5-2.8,0.7-3.5c0.1-1.2,0.4-2.5,0.5-3.2C16.1,14.3,16,14.4,15.6,14.3z"/>
	<path d="M20.4,14c-0.2-0.4-0.4-0.5-0.8-0.4c-0.4,0-1.3,0.1-1.8,0c-0.2,0-0.7,0.4-0.7,0.4v0.1c0,0-0.1,1,0,1.4
		c0.1,0.3,0.3,1.8,0.3,2.1c0,0.3,0.2,1.9,0.2,2.8c-0.1,0.7-0.1,3-0.2,3.6c0,0.6,0.3,1,0.9,1c0.2-0.1,1.5-0.3,2.3-0.4
		c0.7,0.1,0.5,0.2,0.8-0.2c0.1-0.6-0.7-1.8-0.8-3c-0.2-0.8-0.2-4.7-0.2-5.8C20.8,14.3,20.6,14.5,20.4,14z"/>
	<path d="M23.5,21.6c0,0.5-0.1,1.4,0.3,1.9c0.5,0.3,1.4-0.3,2.2-0.5c0.5-0.2,0.5-0.4,0.9-0.8c-0.1-0.4-0.5-1.3-0.9-2.1
		c-0.3-0.8-0.5-1.9-0.7-3c-0.4-0.8-0.9-2.7-1.1-3.5c-0.1-0.4-0.4-0.7-0.8-0.9c-0.2,0.2-0.7,0.4-1.1,0.5c-0.3-0.1-1,0.1-1.4,0.1
		c-0.5,0.1-0.2,0.5-0.2,0.5s0.9,1.8,1,1.9s0.8,1.9,1,2.5C23,18.7,23.6,21.1,23.5,21.6z"/>
	<path d="M28.6,14.6c-0.4-1.5-0.6-2.1-0.9-2.4c-0.3,0.1-0.8,0.3-1,0.4c0,0.1-0.9,0.3-1.5,0.3C24.6,13,25,13.5,25,13.5
		s0.3,0.9,0.6,1.1c0.3,0.2,0.9,2,1.1,2.3s0.9,2.9,1,3c0.1,0.2,0.1,1.1,0.4,1.7s0.6,0.2,0.9,0s0.6-0.1,1.2-0.3
		c0.3-0.5,0.1-0.6-0.1-1.6C30.1,18,29.1,16.1,28.6,14.6z"/>
	<path d="M22.2,31.4c0-1.1-0.3-2.2-0.2-2.8c-0.1-0.2-0.1-0.4-0.5-0.4c-0.4,0.3-0.9,0.5-1.1,0.6s-0.8,0.1-1.6,0.1
		c-1,0.1-0.3,1.3-0.3,1.3l0.2,0.3c0,0,0.6,1.9,0.7,2.1c0,0.2,0.3,2.1,0.3,2.3s0,0.7,0.1,1.6c0.2,0.9,0.5,0.8,0.7,0.6
		c0.2-0.1,1.2-0.3,1.9-0.3c0.6,0,0.8,0,1-0.5c0.2-0.4-0.5-1.1-0.7-2C22.4,33.6,22.4,32.5,22.2,31.4z"/>
	<path d="M27.4,27.6c0.5-3.2-0.2-1.2-0.5-1.6c-0.3-0.3-0.7,0-0.9,0.1c-0.2,0.1-0.7,0.2-1.3,0.2c-0.7-0.2-0.4,0.9-0.4,0.9
		s0.2,1.2,0.3,1.6c0.2,0.4,0.4,1.8,0.4,2.3s0,1.6-0.2,2.6c-0.1,1,0.4,0.8,0.8,0.6c0.4-0.3,1.3-0.1,2,0c0.5,0,0.6-0.1,0.7-0.6
		c-0.1-0.3-0.5-1.7-0.7-2.2C27.5,31,27.6,29,27.4,27.6z"/>
	<path d="M31.6,24c-0.1-0.6-1,0.1-1,0.1s-1.1,0.2-1.8,0.4c-0.6,0.2-0.1,1.1-0.1,1.1s0.6,2.3,0.6,2.6c0,0.3,0,2,0,2.9
		c0.3,0.6,1.2,0,1.7-0.2c0.6,0.1,0.7,0,1.1-0.2c-0.1-0.4-0.3-1.2-0.3-1.2s-0.1-1.3-0.1-2.2C31.7,26.4,31.5,24.9,31.6,24z"/>
	<path d="M27,22.5c-0.1,0-0.2,0.3-0.3,0.5c-0.1,0.2-0.9,0.3-1.4,0.4c-0.4,0.2-1.1,0.4-1.3,0.4c-0.1,0-0.4-0.1-0.4-0.1
		s-0.1,0.4-0.1,0.5s0.1,0.5,0.3,1.4c0.5,0.6,1.3,0.3,1.7,0.3c0.3,0,0.8-0.3,1-0.5c0.1-0.1,0.6,0.2,1-0.2c0.2-0.3,0-1.4,0-1.9
		C27.5,22.9,27.2,22.5,27,22.5z"/>
	<path d="M28.6,22.2c-0.9-0.2-0.5,0.9-0.5,0.9s0.1,0.7,0.4,1.2c0.1,0.3,1.4-0.2,1.9-0.4c0.6-0.2,0.7-0.3,1.1-0.6
		c0.1-0.4-0.5-1.3-0.9-1.9c-0.4-0.2-0.4,0.1-0.8,0.2C29.5,21.6,29.2,21.9,28.6,22.2z"/>
	<path d="M21.5,27.8c0.3-0.4,0.9-0.9,0.1-2.6c-0.4-0.3-0.8-0.4-1.3-0.4c-0.4,0-1.8,0.4-1.8,0.4l-0.7,0.2c0,0-0.6,1.5,0.3,3
		c0.7,0.3,1.5,0.3,1.9,0.3C20.5,28.6,21.2,28.1,21.5,27.8z"/>
	<path d="M22.3,37.1c-0.1,0-0.9,0.1-1.6,0.2c-0.8,0.2-1.3,1.4-1.3,1.4s0,0,0.1,0.5s0.4,0.7,1,0.6c0.2-0.2,1.4-0.2,2.2-0.2
		c0.6-0.1,0.6-0.6,0.6-1.5C23,37.2,22.7,37.2,22.3,37.1z"/>
	<path d="M22.8,42.1c0.2-1.3,0.1-1.4-0.2-2.1c-0.4-0.2-0.8,0-1.4,0c-0.9,0-1.4,0.9-1.4,0.9s0.1,0.2,0.3,0.4c0.1,0.2,0.2,1,0.3,1.9
		c0,0.9,0.1,0.7,0.4,1.7c0.5,0.3,1,0,1,0s0.5,0,1.1-0.1c0.5-0.3,0.4-0.2,0.3-1C23.1,43.3,22.8,43.3,22.8,42.1z"/>
	<path d="M23,45c-0.3,0.1-1,0.1-1.5,0c-0.3,0-0.5,0.1-0.5,0.6c-0.1,0.5,0.5,2.2,0.5,2.2s0,0,0,0.3s0.9,0.1,1.5-0.1
		c0.6-0.3,0.6-0.5,0.4-1.3C23.1,45.9,23.2,45.7,23,45z"/>
	<path d="M22,48.4c-0.4,0-0.6,0.3-0.6,0.3s0.2,0.8,0.3,1.3c0.1,0.5,0.2,1.4,1.1,1.3c0.8,0,0.6-1.4,0.6-1.8c0-0.4,0.1-0.3,0.1-1.1
		C23.3,48,22.5,48.4,22,48.4z"/>
	<path d="M26.3,46.9c-0.5,0-0.8,0.2-0.9,0.6c-0.1,0.4,0.9,2,0.9,2s0.3,0.1,0.6-0.1c0.4-0.2,0.6-1.2,0.7-1.9
		C27.5,46.7,26.8,46.9,26.3,46.9z"/>
	<path d="M27,45c-0.3,0-1-0.1-1.3-0.2c-0.3,0.3-0.3,0.3-0.3,0.7s0.1,1,0.1,1s-0.2,0.5,0.4,0.3c0.6-0.1,1.4-0.1,1.6,0.1
		c0.3-0.4,0.6-1.4,0.5-1.8C27.6,44.8,27.2,44.9,27,45z"/>
	<path d="M26.7,42.7c-1,0.2-1.3,0.6-1.3,0.8s0.1,0.4,0.1,0.4s0.1,0.7,1,0.7c0.4,0.1,1.4,0.1,1.4-0.5C27.7,43.3,27.6,42.7,26.7,42.7z
		"/>
	<path d="M26.4,36.1c-0.3,0-1,0.6-1,0.6s-0.2,0.2-0.2,0.5s0.2,0.8,0.3,1.3c0.1,0.5,0.2,1.6,0.1,2.2c-0.1,0.6,0,0.8,0.3,1.3
		c0.3,0,0.7-0.2,1.2-0.1c0.5,0.2,0.4-0.1,0.5-0.7c0-0.5-0.1-1-0.1-2.3c0.2-1.1,0.2-2,0.1-2.7C27.6,35.8,26.7,36.1,26.4,36.1z"/>
	<path d="M26.1,34.2c-0.2,0-0.7,0.3-1.1,0.5c-0.2,0.4,0.2,1.7,0.2,1.7h0.1c0,0,0.4-0.2,0.6-0.4c0.1-0.2,0.7-0.3,0.9-0.2
		c0.3,0.1,0.7,0.1,1-0.1c0.1-0.4,0-1-0.2-1.3C27.5,34.4,26.4,34.3,26.1,34.2z"/>
	<path d="M30.5,31.2c-1,0.3-0.9,0.8-0.8,0.9c0,0-0.2-0.1-0.1,0.4s0.3,0.6,1.1,0.6c0.7,0,0.7-0.2,1.2-0.5c0.2-0.7,0.2-1,0-1.5
		C31.6,31.1,30.9,31.1,30.5,31.2z"/>
	<path d="M31.3,33.2c-0.2,0.1-0.7,0.1-1.1,0c-0.4-0.2-0.8,0.2-0.8,0.2l-0.1,0.1c0,0,0.1,0.4,0.2,0.8c0.1,0.4,0.1,1.6,0.1,1.8
		c0,0.3-0.1,1.2-0.2,1.6c-0.1,0.3,0,0.9,0.4,1.2c0.3-0.2,1.2-0.3,1.6-0.2c0.3,0.1,0.4-0.4,0.3-0.9c-0.1-0.4-0.2-3-0.1-3.8
		C31.8,32.9,31.6,33.2,31.3,33.2z"/>
	<path d="M30.6,38.8c-0.3,0-0.7,0.4-0.7,0.4v0.2c0,0,0.1,0.4,0.2,0.7c0.1,0.2,0.6,0.2,1.2,0.1l-0.1,0.2c-0.2,0-0.4,0-0.6,0
		c-0.4-0.1-0.4,0.4-0.4,0.4s0,0.6,0.3,1.2c0.2,0.6,0.5,0.9,1.1,1c0.5-0.2,0.5-1,0.5-1.8c0-0.4-0.1-0.5-0.2-0.6
		c0-0.2-0.1-0.4-0.1-0.6c0.1-0.2,0.1-0.4,0.1-0.8C32,38.7,30.9,38.8,30.6,38.8z"/>
	<path d="M9,10c0,0-0.5,0.9-0.8,1.2c-0.4,0.3-1,0.7-1.8,1.2c-0.5,0.5-0.2,0.8,0.3,1.4c0.4,0.1,0.8,0.5,1.3,1.1c0.9,0.4,1.4-0.2,2-1
		c1.6-1.4,1.9-2.2,2.4-3c0.6-0.9,0.2-1.6,0.2-2.4c-0.2-0.9-1.3-1.1-1.8-1.1C9.6,7.5,9,10,9,10z"/>
	<path d="M6.4,13.9c-0.4-0.3-0.6,0.3-0.6,0.3s-0.1,0.4-0.1,0.6c0,0.3-0.2,0.9-0.5,1.3c-0.5,0.7,1.1,1.1,1.3,1.4
		c0.1,0.3,0.8,0.1,1.5,0.1c0.5-0.3,0.8-1.6,1-2.1c-0.2-0.2-0.5-0.1-0.8-0.2C7.9,15.1,6.8,14.2,6.4,13.9z"/>
	<path d="M7.2,17.8c-0.6,0-1.6-0.4-1.6-0.4s-0.7-0.8-0.8-0.1c-0.1,0.6,0,1-0.3,1.5c-0.2,0.6-1,1.4-0.7,1.8c0.5,0.1,1,0.1,1.3,0.4
		c0.4,0.6,0.9,0.8,1.2,0.4c0.3-0.6,1.1-2,1-2.7C7.6,18.1,7.7,17.9,7.2,17.8z"/>
	<path d="M5.9,21.6c-0.3,0.1-0.6,0-0.8-0.4c-0.5-0.5-1-0.4-1.4-0.5c-0.3,0-0.3,0.5-0.7,1.1c-0.3,0.8,0.2,1,0.2,1s0.5,0.4,0.8,0.5
		c0.2,0.1,0.9,0.4,1.4,0.3c0.4,0,0.6-0.5,0.8-1.4C6.2,21.5,6.1,21.8,5.9,21.6z"/>
	<path d="M4.6,23.8c-0.8-0.2-1.3-0.4-1.4-0.5c0-0.1-0.4-0.4-0.4-0.4H2.6c0,0-0.7,0.6-0.8,1.1c-0.1,0.6-0.2,1.1,0,1.3
		c0.4,0.1,1.6,0.9,1.9,0.9c0.5,0.2,0.9-0.2,1.2-0.7c0.3-0.4,0.4-1.3,0.4-1.3S5.3,23.9,4.6,23.8z"/>
	<path d="M1.7,25.6l-0.2,0.1c0,0-0.5,0.6-0.7,0.9c-0.1,0.2-0.6,0.5-0.8,1.9c-0.2,1.3,0.8,1.3,1.1,1.3c0.3,0,1-0.8,1.3-1.1
		c0.3-0.2,0.9-1.4,1-1.8s-0.1-0.5-0.1-0.5L1.7,25.6z"/>
	<path d="M12.3,33.9c0.2-0.1,1.3-0.3,1.7-0.2c0.4,0.1,0.9,0,1.1-0.2c0.2-0.3-0.2-0.6-0.3-1.4c0.1-0.5-0.2-1.1-0.2-1.8
		c-0.3-0.5-0.5-0.3-1-0.5c-0.3,0.1-1.3,0.1-1.8,0.1c-0.6,0.1-0.1,0.7-0.1,0.7s0.1,0.5,0.2,0.6s0.3,1.4,0.2,1.8
		C12,33.2,11.9,33.5,12.3,33.9z"/>
	<path d="M12.2,29.7c0.4,0,1.2-0.3,1.3-0.3c0.2,0.1,0.6,0.3,0.9,0.3c0.5-0.3,1.4-0.9,0.8-3.5c-0.4-0.3-0.4-0.4-0.6-0.4
		c-0.4,0.2-1.3,0.4-1.5,0.1c-0.6,0.1-1.8,0.2-1.8,0.2s-0.7,1.6-0.1,3.1C11.5,29.5,12,29.7,12.2,29.7z"/>
	<path d="M14.3,37.1c0.4,0,0.7-0.2,1.1-0.6c0.3-0.8-0.3-2-0.5-2.4c-0.1-0.1-1.1-0.2-1.7-0.2c-0.4,0.2-1,0.6-1,0.6s0,0,0,0.2
		c0,0-0.2,0,0,0.9C12.8,37,13.9,37.1,14.3,37.1z"/>
	<path d="M14.4,41.4c0.3-0.3,0.7-0.2,1.2-0.3c0.5,0,0.9,0.6,0.5-0.3c-0.3-0.6-0.6-1.5-0.7-2.7c0-1.3-0.5-0.9-0.7-0.8
		c-0.3,0.1-0.8,0.2-1.3,0c-0.4-0.1-0.2,0.6-0.2,0.6s0.2,0.6,0.2,0.9c0.1,0.3,0.4,1.4,0.4,2.1C13.9,41.6,14.2,41.7,14.4,41.4z"/>
	<path d="M15.8,43.3c0.4-0.2,0.8-0.4,0.8-0.6c0-0.3,0-0.5-0.4-1c-0.5-0.5-1-0.4-1.5-0.2c-0.5,0.1-0.5,1.2-0.5,1.2s0,0,0.1,0.3
		C14.3,43.2,15.5,43.5,15.8,43.3z"/>
	<path d="M16.5,43.2c-0.2,0.2-0.8,0.6-1.4,0.5c-0.5-0.1-0.5,0.1-0.5,0.1s0.1,0.5,0.2,0.7c0.1,0.3,0.2,0.7,0.3,1.7
		c0,0.9,0.3,1,1.1,1.5c0.9,0.4,1.5-0.5,1.5-1.2c-0.2-0.2-0.6-0.8-0.9-1.9C16.9,43.6,16.8,43.2,16.5,43.2z"/>
	<path d="M22.3,12.8c0.7,0.1,1.1-0.4,1.1-0.9c0-0.3,0-0.3,0.3-0.8c0.3-0.7,0.3-0.9,0.2-1.6c-0.3-0.7-1.5-1.1-2.3-1.5
		c-0.6-0.2-0.5,0.3-0.8,0.9c-0.7,1.2,0.1,1.8,0.1,1.8s-0.5,0.4-0.4,1.4C20.5,13.1,21.5,12.7,22.3,12.8z"/>
</g>
</svg>
