<?xml version="1.0" encoding="utf-8"?>
<!-- Generator: Adobe Illustrator 23.0.3, SVG Export Plug-In . SVG Version: 6.00 Build 0)  -->
<svg version="1.1" id="Layer_1" xmlns="http://www.w3.org/2000/svg" xmlns:xlink="http://www.w3.org/1999/xlink" x="0px" y="0px"
	 viewBox="0 0 32.1 47.8" style="enable-background:new 0 0 32.1 47.8;" xml:space="preserve">
<g>
	<path d="M6.3,2.2C6.6,1.7,6.8,1.4,6.9,1C7,0.5,7.5,0.6,7.6,0.8C7.7,1,8.5,0.9,8.5,0.9L9.2,1l0.1,0.5c0,0-0.2,1.2-0.2,1.7
		C9,3.7,8.5,4.3,7.6,4.3c-0.6,0.2-1.5,1-2,1.4C5,5.7,5.3,5.1,5.4,4C5.6,3.1,6,2.7,6.3,2.2z"/>
	<path d="M10.1,0.2c0.6-0.3,0.5-0.3,0.9-0.1c0.3,0.2,0.7,1.1,0.7,1.1s0,0.3-0.4,0.6c-0.3,0-0.9,0.3-1.2,0.5c-0.3,0.1-0.5,0-0.6-0.5
		C9.6,1,9.6,0.7,10.1,0.2z"/>
	<path d="M10.5,5.4C9.9,5.7,10,5.6,9.8,5c-0.4-0.7-0.2-0.9,0-1.9c0.2-0.7,0.8-0.5,1.3-0.8c0.4-0.2,0.7-0.1,0.7-0.1s0.3,0.6,0.6,1.6
		c0.1,0.8,0.1,0.5-0.1,1.2C12,5,11.4,5.2,10.5,5.4z"/>
	<path d="M14.8,5.4c-0.3,0.1-0.4,0.2-0.9,0.5c-0.8,0.7-1-0.4-1.2-0.8c0-0.1,0.1-0.7-0.2-1.3c-0.2-1-0.1-0.9-0.1-1.9
		c0.3-0.6,1-0.3,1.6-0.2c0.5,0.2,0.4,1,0.4,1s0,0.5,0,0.8s0.3,0.7,0.7,1.3C15.4,5,15.2,5.2,14.8,5.4z"/>
	<path d="M15.7,5.3c-0.1-0.1-0.3-0.9-0.5-1.2c-0.4-0.7-0.3-1-0.3-1.5c-0.2-0.8-0.2-1.2-0.1-1.9c0.4-0.3,0.6-0.3,0.6-0.3
		s0.4-0.9,1.3,0.2c0.8,0.8,1.8,1.8,1.2,2.3c-0.4,0.5-0.7,0.6-1,1.2l0,0l0,0c-0.2,0.7,0.1,1.2-0.3,1.5h-0.1l0,0l0,0
		C16.1,5.5,15.9,5.4,15.7,5.3z"/>
	<path d="M4.4,5.2C4.1,5.1,3.9,5.4,3.5,5.4c-0.2-0.1,0-0.5,0.1-1.1c0.3-0.5,0.3-0.4,0.8-0.5c0.4-0.1,0.7,0.1,0.7,0.1S4.9,4.6,5,5.1
		C5,5.5,4.8,5.5,4.4,5.2z"/>
	<path d="M13.5,8.6c0.1,0.5-0.2,0.9-0.5,0.8c-0.4-0.1-0.5,0-1.7,0.2c-2,0.2-1.2-2.3-1.2-3.2c0.2-1,1.4-0.8,2.3-0.8
		c0.6,0.1,0.4,0.6,0.5,1.1C13,7,13.2,7.8,13.2,7.8S13.4,8.2,13.5,8.6z"/>
	<path d="M14.6,10.1c-0.8,0-0.5-0.3-0.7-0.9c0-0.4-0.3-1.5-0.4-2.1c-0.1-0.8,1.2-1,1.7-1.4c0.5-0.1,1.3,0.6,1.3,0.6s0.6,1,0.7,1.9
		c0.1,0.8-0.1,0.9-0.4,1.4C16.4,9.9,15.2,9.8,14.6,10.1z"/>
	<path d="M4.7,6.1l1,0.6c0,0,0.4,1,0.7,1.7c0.1,0.5,0,0.6-0.6,1C5.2,9.7,4.3,9.1,3.6,9.1c-0.5,0-1.1-0.3-1-0.8
		C2.5,7.8,3.1,6.6,3.3,6.4C3.5,6.1,4.7,6.1,4.7,6.1z"/>
	<path d="M19,21.4c-0.2,0-0.8,0-1,0.1s-1.3,0.1-1.4-0.6c0-0.9-0.4-2.3-0.4-3.3c-0.4-1.2-0.8-2.8-1.1-3.5c-0.2-1.2-0.6-2.4-0.9-3.1
		c0.2-0.7,0.3-0.5,0.7-0.7c0.6-0.1,1.7-0.3,1.7-0.3s0.4-0.5,0.9,0.1c0.3,0.7,1.3,3.6,1.4,4.2C19,15,19,16.5,19.1,17
		c0.2,0.7,0.6,2.8,0.7,3.2c0.1,0.4,0.3,0.8,0.3,0.8s0.2,0.2,0,0.4C19.9,21.6,19.1,21.4,19,21.4z"/>
	<path d="M13.5,11.6c-0.1,0.4-0.1,1.8-0.1,2.1c0,0.3,0,1.9,0.1,2.9c0.2,0.6,0.5,3,0.6,3.6s-0.2,1-0.7,1c-0.2-0.1-1.5-0.2-2.3-0.2
		c-0.6,0.1-0.5,0.2-0.8-0.1c-0.1-0.5,0.5-1.8,0.5-3.1c0.1-0.8-0.3-4.7-0.5-5.8c-0.5-1.2-0.3-1.1-0.1-1.6c0.1-0.4,0.3-0.5,0.7-0.5
		c0.4,0,1.4,0,1.8-0.2c0.2,0,0.7,0.3,0.7,0.3v0.1C13.4,10.2,13.6,11.2,13.5,11.6z"/>
	<path d="M5.2,16.7c0.2-0.8,0.3-1.9,0.3-3.1c0.3-0.8,0.6-2.8,0.7-3.6c0.1-0.4,0.4-0.8,0.7-0.9c0.2,0.2,0.8,0.4,1.2,0.4
		c0.3-0.1,1,0,1.4,0C10,9.6,9.8,10,9.8,10S9.1,11.8,9,11.9c-0.1,0.1-0.5,1.9-0.7,2.6c-0.1,0.7-0.5,3.1-0.4,3.6s0.2,1.4-0.1,1.9
		c-0.5,0.3-1.4-0.2-2.2-0.3c-0.5-0.1-0.6-0.3-1-0.8C4.5,18.5,4.9,17.6,5.2,16.7z"/>
	<path d="M3.7,9.3c0,0.1,1,0.2,1.5,0.2c0.6,0.1,0.3,0.6,0.3,0.6S5.3,11,5,11.2c-0.2,0.2-0.7,2-0.8,2.3c-0.2,0.3-0.6,2.9-0.7,3.1
		c0,0.2,0,1.1-0.2,1.7s-0.6,0.2-0.9,0.1s-0.7-0.1-1.2-0.2c-0.4-0.5-0.2-0.6-0.1-1.6c-0.2-1.7,0.6-3.7,0.9-5.2
		c0.3-1.6,0.4-2.1,0.7-2.5C2.9,9.1,3.5,9.2,3.7,9.3z"/>
	<path d="M13.8,26.4l-0.2,0.3c0,0-0.4,1.9-0.4,2.2c0,0.2-0.1,2.1,0,2.3c0,0.2,0.1,0.7,0,1.6c-0.1,0.9-0.4,0.8-0.6,0.7
		s-1.3-0.2-1.9-0.1c-0.6,0-0.8,0-1.1-0.4c-0.3-0.4,0.4-1.1,0.5-2c0.1-0.9,0-2,0-3.1c-0.1-1.1,0-2.3-0.1-2.8c0.1-0.2,0-0.4,0.5-0.5
		c0.5,0.3,1,0.5,1.2,0.6s0.8,0.1,1.6,0C14.3,25.1,13.8,26.4,13.8,26.4z"/>
	<path d="M5,31c-0.5,0-0.6-0.1-0.8-0.5c0.1-0.4,0.3-1.7,0.5-2.2c0.1-0.5-0.1-2.5-0.2-4c-0.9-3.1,0.1-1.2,0.3-1.7
		c0.3-0.3,0.7-0.1,0.9,0C6,22.7,6.4,22.8,7,22.7c0.7-0.3,0.5,0.9,0.5,0.9s0,1.2-0.2,1.6c-0.1,0.4-0.2,1.8-0.2,2.3s0.1,1.6,0.5,2.6
		c0.2,1-0.3,0.8-0.7,0.7C6.6,30.5,5.7,30.8,5,31z"/>
	<path d="M1,21.1c0,0,1.2,0.2,1.9,0.3c0.6,0.2,0.2,1.1,0.2,1.1s-0.3,2.4-0.3,2.6c0,0.3,0.2,2,0.3,2.9c-0.3,0.6-1.2,0.1-1.7,0
		c-0.6,0.1-0.7,0.1-1.1-0.2c0.1-0.4,0.1-1.2,0.1-1.2s0-1.3-0.1-2.2C0.2,23.5,0.2,22,0,21.2C0,20.6,1,21.1,1,21.1z"/>
	<path d="M7.5,20.4c0.1,0,0.4-0.2,0.4-0.2s0.1,0.4,0.2,0.5c0,0.1-0.1,0.5-0.2,1.5c-0.4,0.7-1.2,0.4-1.7,0.4c-0.3,0-0.8-0.3-1-0.5
		c-0.1-0.1-0.6,0.2-1-0.1C4,21.7,4,20.6,4,20.1c0.1-0.5,0.3-0.8,0.5-0.9c0.1,0,0.2,0.2,0.3,0.4c0.1,0.2,0.9,0.2,1.4,0.3
		C6.6,20.2,7.4,20.3,7.5,20.4z"/>
	<path d="M1.5,18.6c0.3,0,0.6,0.3,1.3,0.5C3.7,18.8,3.4,20,3.4,20s0,0.7-0.3,1.2c-0.1,0.3-1.4-0.1-2-0.3c-0.6-0.1-0.7-0.2-1.1-0.5
		c-0.1-0.4,0.4-1.3,0.7-2C1.1,18.2,1.1,18.6,1.5,18.6z"/>
	<path d="M13.9,24.6C13.2,24.9,12.4,25,12,25c-0.5-0.1-1.2-0.5-1.6-0.7c-0.4-0.4-1-0.9-0.4-2.6c0.3-0.4,0.8-0.5,1.2-0.5
		c0.4,0,1.8,0.3,1.8,0.3l0.7,0.1C13.9,21.5,14.6,23,13.9,24.6z"/>
	<path d="M13.7,35.4c-0.1,0.5-0.4,0.8-0.9,0.7c-0.3-0.2-1.4-0.1-2.2,0C10,36,9.9,35.6,9.8,34.7c0.2-1,0.5-1,0.9-1.1
		c0.1,0,0.9,0,1.6,0.1c0.9,0.2,1.4,1.3,1.4,1.3S13.7,34.9,13.7,35.4z"/>
	<path d="M12,41.2c0,0-0.5,0.1-1.1,0c-0.5-0.2-0.4-0.2-0.4-0.9c0.1-0.5,0.3-0.6,0.2-1.8c-0.3-1.3-0.3-1.3-0.1-2.1
		c0.4-0.3,0.8,0,1.4-0.1c0.9-0.1,1.5,0.8,1.5,0.8s-0.1,0.2-0.2,0.5c-0.1,0.2-0.1,1-0.1,1.9c0.1,0.9,0,0.7-0.2,1.7
		C12.6,41.5,12,41.2,12,41.2z"/>
	<path d="M11.2,44.4c-0.6-0.2-0.7-0.4-0.5-1.3c0.2-0.8,0-1,0.2-1.7c0.3,0,1,0,1.5-0.1c0.3,0,0.5,0.1,0.6,0.5
		c0.2,0.5-0.2,2.2-0.2,2.2s0,0,0.1,0.3C12.8,44.7,11.8,44.6,11.2,44.4z"/>
	<path d="M10.8,45c0-0.6,0.9-0.2,1.4-0.2c0.4-0.1,0.6,0.3,0.6,0.3s-0.1,0.8-0.1,1.3c-0.1,0.5-0.1,1.4-0.9,1.4s-0.8-1.3-0.7-1.7
		C11,45.7,10.9,45.7,10.8,45z"/>
	<path d="M7.8,43.6c0.5,0,0.8,0.1,1,0.5s-0.6,2.1-0.6,2.1s-0.3,0.1-0.6-0.1c-0.4-0.2-0.7-1.1-0.9-1.9C6.6,43.4,7.3,43.6,7.8,43.6z"
		/>
	<path d="M6.6,43.6c-0.3-0.4-0.7-1.4-0.7-1.7c0.3-0.3,0.7-0.2,0.9-0.1c0.3,0,0.9-0.2,1.3-0.3c0.3,0.3,0.4,0.3,0.4,0.7s0.1,1,0.1,1
		s0.2,0.4-0.3,0.3C7.6,43.4,6.9,43.4,6.6,43.6z"/>
	<path d="M8.3,40.5c0,0,0,0.7-0.9,0.8C7,41.4,6,41.5,6,40.9c0-0.8,0.1-1.4,1-1.4c1,0.1,1.4,0.5,1.4,0.7C8.4,40.4,8.3,40.5,8.3,40.5z
		"/>
	<path d="M7.7,35.1c0,0.5,0,1.6,0.1,2.2c0.1,0.6,0.1,0.8-0.1,1.3c-0.3,0.1-0.8-0.2-1.2,0c-0.5,0.2-0.4,0-0.6-0.6c0-0.5,0-1-0.2-2.3
		c-0.3-1.1-0.4-2-0.4-2.7c0-0.4,0.9-0.2,1.2-0.2c0.3-0.1,1.1,0.5,1.1,0.5s0.2,0.2,0.2,0.5C7.9,34.1,7.8,34.6,7.7,35.1z"/>
	<path d="M7.6,33c0,0-0.5-0.2-0.6-0.3c-0.2-0.1-0.7-0.2-1-0.2c-0.2,0.1-0.7,0.1-1,0c-0.1-0.4-0.1-1,0.1-1.3c0.1-0.1,1.2-0.2,1.5-0.4
		c0.2,0,0.7,0.2,1.1,0.5C8,31.7,7.7,33,7.6,33L7.6,33z"/>
	<path d="M1.9,28.2c1.1,0.2,1,0.7,0.9,0.8c0,0,0.2-0.1,0.1,0.4s-0.2,0.6-1,0.7c-0.7,0.1-0.7-0.2-1.2-0.4c-0.3-0.7-0.3-1-0.1-1.5
		C0.8,28.2,1.5,28.2,1.9,28.2z"/>
	<path d="M2.4,30.2c0.4-0.3,0.8,0.1,0.8,0.1l0.1,0.1c0,0,0,0.4-0.1,0.8s0.1,1.6,0.1,1.8c0,0.3,0.2,1.2,0.4,1.6
		c0.1,0.3,0.1,0.9-0.3,1.2c-0.3-0.2-1.2-0.2-1.7-0.1c-0.3,0.1-0.5-0.4-0.4-0.9c0.1-0.4-0.1-3-0.3-3.8c-0.2-1,0-0.7,0.3-0.7
		C1.6,30.4,2,30.4,2.4,30.2z"/>
	<path d="M1.4,38.4c0-0.4,0-0.5,0.1-0.6c0-0.2,0-0.4,0-0.6c-0.2-0.1-0.1-0.4-0.2-0.8c-0.1-0.6,1-0.5,1.3-0.5s0.7,0.4,0.7,0.4
		l0.1,0.2c0,0-0.1,0.4-0.2,0.7c-0.1,0.2-0.6,0.3-1.2,0.2l0.1,0.2c0.2,0,0.4,0,0.6,0C3.1,37.5,3.2,38,3.2,38s0,0.6-0.1,1.2
		c-0.2,0.6-0.4,0.9-1,1.1C1.6,40,1.5,39.2,1.4,38.4z"/>
	<path d="M18.8,3c1.2,0,2.1,2.4,2.1,2.4s0.5,0.8,1,1.2c0.4,0.3,1,0.6,1.9,1.1c0.5,0.5,0.3,0.7-0.2,1.4c-0.4,0.1-0.7,0.5-1.2,1.2
		c-0.9,0.5-1.4-0.1-2.1-0.9c-1.7-1.3-2.1-2.1-2.7-2.8c-0.7-0.8-0.4-1.6-0.5-2.4C17.2,3.4,18.3,3.1,18.8,3z"/>
	<path d="M22.5,10.6c0.2-0.1,1.2-1.1,1.6-1.4c0.4-0.4,0.7,0.2,0.7,0.2S24.9,9.8,25,10c0.1,0.3,0.3,0.9,0.6,1.2
		c0.5,0.7-1,1.2-1.1,1.5s-0.8,0.1-1.4,0.2c-0.5-0.2-1-1.5-1.2-2C21.8,10.6,22.1,10.7,22.5,10.6z"/>
	<path d="M27.2,15.6c-0.5,0.2-1,0.2-1.3,0.5c-0.3,0.6-0.8,0.8-1.2,0.5c-0.4-0.6-1.3-1.9-1.3-2.6c-0.2-0.5-0.4-0.8,0.1-0.9
		c0.6,0,1.5-0.6,1.5-0.6s0.6-0.8,0.8-0.2c0.2,0.6,0.1,0.9,0.4,1.5C26.6,14.4,27.5,15.2,27.2,15.6z"/>
	<path d="M28.2,17.8c0,0-0.5,0.4-0.7,0.6s-0.8,0.4-1.4,0.4c-0.4,0-0.6-0.4-1-1.4c-0.2-0.6-0.1-0.3,0.2-0.6c0.3,0,0.5-0.1,0.8-0.4
		c0.4-0.5,1-0.5,1.4-0.6c0.3,0,0.4,0.5,0.8,1C28.7,17.7,28.2,17.8,28.2,17.8z"/>
	<path d="M26.9,18.9c0.7-0.2,1.3-0.5,1.3-0.6s0.4-0.5,0.4-0.5h0.2c0,0,0.8,0.5,0.9,1.1c0.1,0.5,0.3,1.1,0.1,1.3
		c-0.3,0.2-1.5,1-1.8,1c-0.5,0.2-0.9-0.1-1.3-0.6c-0.3-0.4-0.5-1.3-0.5-1.3S26.2,19.1,26.9,18.9z"/>
	<path d="M28.5,21.3l1.5-0.9h0.2c0,0,0.6,0.6,0.8,0.8c0.2,0.2,0.6,0.5,1,1.8s-0.7,1.3-1,1.4c-0.3,0-1.1-0.8-1.4-1s-1.1-1.3-1.2-1.7
		C28.3,21.5,28.5,21.3,28.5,21.3z"/>
	<path d="M17.5,29.3c-0.3-0.3,0.1-0.6,0.1-1.4c-0.1-0.5,0.1-1.1,0-1.8c0.2-0.6,0.5-0.3,0.9-0.6c0.3,0.1,1.3,0.1,1.8-0.1
		c0.6,0,0.2,0.6,0.2,0.6s-0.1,0.5-0.1,0.7c0,0.1-0.1,1.4,0,1.8s0.2,0.6-0.1,1c-0.2-0.1-1.3-0.2-1.7-0.1
		C18.2,29.6,17.7,29.6,17.5,29.3z"/>
	<path d="M19.9,25.4c-0.4,0-1.2-0.2-1.4-0.2c-0.2,0.1-0.6,0.4-0.8,0.4c-0.5-0.3-1.5-0.8-1.2-3.5c0.3-0.4,0.3-0.5,0.5-0.4
		c0.4,0.2,1.4,0.3,1.5,0c0.6,0,1.8,0.1,1.8,0.1s0.9,1.5,0.4,3.1C20.6,25.2,20.2,25.4,19.9,25.4z"/>
	<path d="M18.6,32.9c-0.4,0.1-0.7-0.2-1.2-0.6c-0.4-0.7,0.1-2,0.3-2.4c0.1-0.2,1.1-0.3,1.6-0.4c0.5,0.2,1.1,0.5,1.1,0.5s0,0,0,0.2
		c0,0,0.2,0,0.1,0.9C20.1,32.7,19.1,32.9,18.6,32.9z"/>
	<path d="M17.8,37c-0.5,0-0.8,0.6-0.6-0.3c0.2-0.6,0.4-1.6,0.4-2.8c-0.1-1.3,0.4-0.9,0.6-0.8c0.3,0.1,0.8,0.1,1.3-0.1
		c0.4-0.1,0.3,0.6,0.3,0.6s-0.1,0.6-0.1,1c0,0.3-0.2,1.4-0.2,2.1c0,0.7-0.2,0.8-0.5,0.5C18.7,36.9,18.3,37,17.8,37z"/>
	<path d="M17,38.6c0-0.3-0.1-0.5,0.3-1.1c0.4-0.5,0.9-0.4,1.4-0.3c0.5,0.1,0.6,1.2,0.6,1.2s0,0,0,0.3s-1.1,0.6-1.5,0.5
		C17.4,39.1,17,38.9,17,38.6z"/>
	<path d="M16.8,40.5c0-0.9,0-1.3,0.3-1.4c0.2,0.2,0.9,0.5,1.4,0.4c0.5-0.2,0.5,0.1,0.5,0.1s-0.1,0.5-0.2,0.7
		c-0.1,0.3-0.1,0.7-0.1,1.7c0.1,0.9-0.1,1.1-0.9,1.6s-1.5-0.4-1.7-1.1C16.3,42.2,16.6,41.6,16.8,40.5z"/>
	<path d="M9.8,8.5c0.1,1-1,0.7-1.7,0.7C7.4,9.4,6.9,8.9,6.9,8.4C6.8,8.1,6.8,8.1,6.5,7.6C6.1,6.9,6.1,6.8,6.1,6.1
		c0.2-0.7,1.4-1.2,2.2-1.7c0.5-0.2,0.5,0.2,0.9,0.9C10,6.4,9.3,7.1,9.3,7.1S9.8,7.5,9.8,8.5z"/>
</g>
</svg>
