<?xml version="1.0" encoding="utf-8"?>
<!-- Generator: Adobe Illustrator 23.0.3, SVG Export Plug-In . SVG Version: 6.00 Build 0)  -->
<svg version="1.1" id="Layer_1" xmlns="http://www.w3.org/2000/svg" xmlns:xlink="http://www.w3.org/1999/xlink" x="0px" y="0px"
	 viewBox="0 0 46.9 66.4" style="enable-background:new 0 0 46.9 66.4;" xml:space="preserve">
<g>
	<path d="M15.4,62.4c0.9,0.9,1.6,0.8,2.7,1.3c1.3,0.5,2.4,0.5,3.6,0.3c0.7,0.1,1.8,0.1,2.8,0.2c0,0.2,0.1,0.3-0.1,0.5
		c-0.3,0.5-1.1,0.3-0.8,1c0.4,0.5,1.4,0.4,1.8,0.1c0.3-0.2,0.8-0.2,1.4,0c0.4,0.2,0.8,0.6,1.5,0.6l0,0c0.6-0.2,0.8-0.7,1.1-0.9
		c0.5-0.3,0.9-0.5,1.3-0.3c0.4,0.1,1.4,0.1,1.7-0.6c0-0.7-0.6-0.3-1.1-0.7l0,0c0.3-0.2,0.6-0.4,0.9-0.6c0.9-0.3,1-0.9,1.9-1.2
		c1-0.4,2.5-1.9,3.9-2.7c1-0.6,0.8-1.1,0.7-2.2c-0.4-2.1,1.9-6.8,2.3-8.6c-0.2,0.2-0.5,0.3-0.8,0.4c-0.2,0-0.4,0-0.5,0.1
		c-1.2,0.1-2.7-0.6-3.4-1.2c-0.1,1.2-0.1,2.1-0.2,2.9c0,0.1,0,0.1,0,0.2C36,51.3,36,51.7,36,52.1c0,0.5,0.3,2.9-0.5,3.4l0,0l0,0
		c0,0,0,0-0.1,0c-0.1,0.3-0.3,0.6-0.6,0.8c-0.2,0-0.4-0.3-0.4-0.3s0,0.2,0,0.4c-0.1,0.2-0.2,0.2-0.3,0.3c-0.3,0-0.4-0.2-0.4-0.2
		s0,0.2,0,0.3l0,0c0,0.1-0.1,0.3-0.3,0.3c-0.3,0-0.4-0.2-0.4,0c0,0.1-0.3,0.5-0.3,0.5l-0.8-0.2c0,0-0.1,0.4-0.6,0.6
		c-0.4-0.1-0.5-0.3-0.5-0.3s0,0.4-0.4,0.7c-0.5,0.1-0.9-0.4-0.9-0.4s-0.1,0.6-0.6,0.9c-0.5,0.3-1.1-0.3-1.1-0.3s-0.2,0.5-0.7,0.8
		S26,58.9,26,58.9s-0.5,0.7-1,0.7c-0.3-0.1-0.9-0.6-0.9-0.6s-0.9,0.5-1.2,0.5c-0.4-0.1-0.9-0.9-0.9-0.9s-0.5,0.7-1.1,0.4
		c-0.5-0.3-0.7-0.9-0.7-0.9s-0.6,0.5-1.1,0.1c-0.5-0.3-0.6-1-0.6-1s-0.4,0.5-0.9,0.3c-0.4-0.4-0.4-0.8-0.4-0.8s-0.1,0.1-0.5,0.2
		c-0.5-0.3-0.6-0.7-0.6-0.7l-0.8,0.1c0,0-0.3-0.4-0.3-0.5c0-0.2-0.1,0-0.5,0c-0.3-0.3-0.2-0.6-0.2-0.6c0,0.1-0.1,0.2-0.5,0.2
		c-0.4-0.1-0.3-0.7-0.3-0.7s-0.3,0.4-0.7,0.2c-0.4-0.5-0.4-0.9-0.4-0.9L12,53l-0.2-1.3c0,0,0.8-1-0.2-5.4c-1,0.7-3.6,1.2-4.7,0
		c0.2,1,0.8,2.7,1.4,4.5c0,0.1,0,0.1,0,0.2c0,0.1,0.1,0.1,0.1,0.2C8.6,52,8.8,52.8,9,53.4c0.1,0.5,0.1,1.1,0.1,1.6
		c0,0.1,0,0.2,0,0.3c-0.1,1.1,0.2,1.8,0.8,2.9c1,1.7,1.9,3.1,3,3.7C13.8,61.8,14.6,62,15.4,62.4z"/>
	<path d="M24.2,56c0,0-0.3,1.7,0,2.3c0.3,0.5,0.7,0.6,0.7,0.6c0.4-0.3,0.6-0.2,0.7-0.7s0.2-1.9,0.2-2C25.5,56,24.7,56,24.7,56
		L24.2,56z"/>
	<path d="M26.6,58.8c0.3-0.2,0.9-0.5,0.9-0.8c0.1-0.5,0.3-1.4,0.2-2c-0.2-0.2-0.9-0.1-0.9-0.1h-0.7c0,0-0.3,1.9-0.2,2.1
		C26,58.4,26.6,58.8,26.6,58.8z"/>
	<path d="M27.7,57.8c0.3,0.3,0.4,0.4,0.6,0.5c0.4-0.3,0.8-0.7,0.8-0.8c0-0.3,0.2-1.6,0-1.7c-0.2-0.1-0.9-0.1-0.9-0.1l-0.5,0.2
		C27.8,55.8,27.7,57.6,27.7,57.8z"/>
	<path d="M29.5,57.5c0.3,0.5,0.5,0.5,0.6,0.6c0.3-0.3,0.7-0.7,0.6-0.8c0-0.3-0.2-1.8-0.2-1.8l-0.4,0.1h-0.7l0.1,0.3
		C29.4,55.9,29.4,57.2,29.5,57.5z"/>
	<path d="M31.1,57.4c0.3-0.4,0.5-0.2,0.5-0.6c0-0.4,0-1.5-0.2-1.5c-0.1,0-0.4-0.1-0.4-0.1l-0.2,0.1h-0.2l0.3,1.8
		C30.8,57,30.9,57.2,31.1,57.4z"/>
	<path d="M32.4,57c0.3-0.3,0.5-0.4,0.4-0.8c0-0.4,0.1-1.4-0.1-1.5S32,54.8,32,54.8l-0.4,0.1l0.3,1.8C32,56.7,32.2,56.9,32.4,57z"/>
	<path d="M33.3,56.6c0.1-0.3,0.2-0.2,0.3-0.6c0-0.1,0-0.3,0-0.4c0-0.1,0.1-0.1,0.1-0.1c0,0.2,0,0.4,0.1,0.5c0.2,0.3,0.2,0.4,0.3,0.4
		c0.1-0.2,0.1-0.3,0.2-0.4c0.1-0.2,0.1-0.7,0-1c0-0.5-0.1-0.9-0.2-0.9s-0.3,0.2-0.3,0.2l-0.1,0.2c0,0,0,0.5,0.1,0.9l0,0h-0.1
		c0-0.4-0.1-0.9-0.1-0.9c0-0.1-0.3,0.1-0.3,0.1l-0.1,0.2c-0.2,0,0.1,1.6,0.1,1.6C33.1,56.4,33.1,56.5,33.3,56.6z"/>
	<path d="M34.5,55.5c0.3,0.3,0.3,0.2,0.3,0.2s0.3-0.1,0.3-0.6c0-0.4-0.2-1.6-0.2-1.6l-0.4,0.2l-0.2,0.2
		C34.3,54.1,34.4,55.3,34.5,55.5z"/>
	<path d="M23.7,58.3c0.4-0.7,0-2.2,0-2.2l-0.6-0.2c0,0-0.7-0.1-1.1,0c0,0.2,0,1.6,0.1,2.1s0.3,0.5,0.7,0.8
		C22.8,58.8,23.4,58.8,23.7,58.3z"/>
	<path d="M21.1,58.7c0,0,0.5-0.4,0.6-0.7c0.1-0.2-0.2-2.1-0.2-2.1l-0.7-0.2c0,0-0.6-0.2-0.9-0.1c-0.2,0.5,0.1,1.5,0.1,2
		C20.1,57.9,20.8,58.6,21.1,58.7z"/>
	<path d="M19.8,57.4c0.1-0.1-0.1-1.9-0.1-1.9l-0.5-0.3c0,0-0.6-0.1-0.9-0.1s-0.1,1.4,0,1.7c0,0.2,0.4,0.6,0.8,0.9
		C19.4,57.8,19.4,57.7,19.8,57.4z"/>
	<path d="M16.7,55.9l0.3-1.8h-0.2L16.6,54c0,0-0.3,0-0.4,0S16,55.1,16,55.5s0.2,0.3,0.5,0.7C16.6,56.1,16.7,55.9,16.7,55.9z"/>
	<path d="M15.3,55.8c0.3,0,0.5-0.2,0.5-0.2l0.3-1.7l-0.4-0.2c0,0-0.5-0.2-0.7-0.2c0,0,0,0,0,0.1v-0.1l-0.1-0.2l-0.3-0.2
		c0,0.1-0.2,1.1-0.2,1.6c0,0.4,0.1,0.3,0.2,0.7c0.2,0,0.2-0.2,0.2-0.2s0.1-0.4,0.1-0.7c0,0.2,0,0.5,0,0.6
		C14.9,55.3,15,55.4,15.3,55.8z"/>
	<path d="M14.2,54.5c0.1-0.3,0.2-1.5,0.2-1.5l-0.1-0.2L14,52.6c-0.1,0-0.2,0.8-0.2,1.4c-0.1,0.4,0.1,0.5,0.2,0.9
		C14,54.9,14,54.8,14.2,54.5z"/>
	<path d="M13.4,52.3L13,52.1c0,0-0.3,1.1-0.2,1.6c0,0.5,0.3,0.6,0.3,0.6s0.1,0,0.3-0.2c0.1-0.2,0.2-1.4,0.3-1.5L13.4,52.3z"/>
	<path d="M17.2,56.7c0.1,0.1,0.2,0.2,0.3,0.3c0.1,0,0.3,0,0.6-0.5c0.1-0.3,0.1-1.6,0.1-1.6l0.1-0.3l-0.7-0.2l-0.4-0.2
		c0,0-0.2,1.5-0.2,1.8C16.8,56.2,17,56.5,17.2,56.7L17.2,56.7z"/>
	<g>
		<path d="M24.9,45.8c-0.3-0.4-0.7-0.6-0.7-0.6s-0.4-0.2-0.9,0.5c-0.2,0.9,0,2.2,0,2.3c0.4,0.2,1.5,0.2,1.7,0.1
			C25,47.4,25.2,46,24.9,45.8z"/>
		<path d="M26.7,48c0.1-0.3-0.1-1.8-0.2-2c-0.1-0.3-0.2-0.3-0.7-0.9c-0.4,0-0.3,0.5-0.5,0.8c0,0.1,0,1.4,0,1.4s0.1,0.5,0.3,0.9
			C25.7,48.2,26.3,48.3,26.7,48z"/>
		<path d="M28.2,47.6c0.1-0.3-0.1-1.5-0.5-2.1c-0.2-0.3-0.7-0.4-0.7-0.4l-0.3,0.3c0,0,0,0.2,0,0.3s0.1,2,0.2,2.1
			C27,47.9,28,47.9,28.2,47.6z"/>
		<path d="M29.5,47.3c0.2,0.1-0.4-1.7-0.4-1.7c-0.1-0.1-0.7-0.6-0.8-0.3l-0.1,0.4l0.2,2C29,47.7,29.2,47.5,29.5,47.3z M28.3,45.3
			C28.3,45.6,28.3,45.4,28.3,45.3L28.3,45.3z"/>
		<path d="M30.6,47c0.1-0.1-0.5-1.8-0.5-1.8c0.1,0.1-0.4-0.3-0.5-0.2c-0.4,0.3,0,1.4,0,1.4l0.3,0.8C30.3,47.1,30.2,47.4,30.6,47z"/>
		<path d="M31.6,46.8c0-0.2-0.4-1.7-0.4-1.7L31,44.8c0,0,0-0.1-0.2,0c-0.1,0-0.2,0.2-0.2,0.5v0.1l0,0c0,0.4,0.1,1,0.1,1l0.2,0.5
			C30.8,46.9,31.6,47,31.6,46.8z"/>
		<path d="M31.8,46.6L31.8,46.6L31.8,46.6z"/>
		<path d="M33.5,46c0.1,0.1,0.2,0.1,0.5-0.1c0.3-0.2,0-0.3,0-0.5c0-0.4-0.3-0.9-0.4-1s-0.5-0.1-0.6-0.1c0,0,0,0.1,0,0.2v0.1
			c-0.1,0-0.1,0-0.2-0.1s-0.2-0.2-0.4-0.2c-0.2,0-0.2,0.3-0.1,0.4v0.1l0,0l0.2,1.1c-0.1-0.4-0.4-1-0.4-1.1c0,0,0-0.4-0.4-0.4
			c0,0-0.1-0.1-0.1,0c0,0-0.1,0.1-0.1,0.3c-0.1,0.5,0.3,1.6,0.4,1.7c0.1,0,0.6-0.1,0.7-0.2c0,0,0-0.2,0-0.3c0,0,0.5,0.2,0.8,0
			c0-0.1-0.2-0.8-0.3-1.2c0,0,0-0.1,0-0.2C33.1,45.2,33.4,45.9,33.5,46z"/>
		<path d="M33,44.3L33,44.3L33,44.3z"/>
		<path d="M19.1,47.6c0.1-0.2,0.3-2,0.3-2.1s0-0.3,0-0.3l-0.2-0.4c0,0-0.6,0-0.8,0.3c0,0.1-0.1,0.2-0.1,0.3c0,0,0,0,0,0.1
			c-0.1,0.3-0.2,0.7-0.3,1l0,0l0,0c-0.1,0.3-0.1,0.5-0.1,0.6C18,47.4,19,47.5,19.1,47.6z"/>
		<path d="M17.9,45c0,0,0-0.6-0.3-0.5c-0.4,0.1-0.3,0.1-0.4,0.3l0,0l0,0c-0.2,0.2-0.6,0.4-0.5,1.7l0.1,0.1c0,0,0,0.1,0.1,0.1
			c0.1,0.1,0.3,0.1,0.4,0.2c0.2,0.1,0.3,0.1,0.3,0.1C17.9,46.1,17.9,45,17.9,45z"/>
		<path d="M16.3,46.6l0.4-1.8c0,0-0.1-0.5-0.3-0.6c-0.1-0.1-0.5,0.2-0.5,0.2l-0.6,1.7l0.1,0.1c0,0.1,0.1,0.1,0.1,0.1
			C15.8,46.5,15.9,46.4,16.3,46.6z"/>
		<path d="M15.8,44.4c0,0-0.1-0.5-0.3-0.5c-0.2,0-0.2,0-0.2,0l-0.2,0.2c0,0-0.5,1.4-0.5,1.6s0.7,0.4,0.7,0.4L15.8,44.4z"/>
		<path d="M14.3,45.5L14.3,45.5L14.3,45.5z"/>
		<path d="M14.6,43.5C14.6,43.5,14.7,43.5,14.6,43.5C14.7,43.5,14.6,43.5,14.6,43.5z"/>
		<path d="M13.2,43.2c0-0.2,0-0.2,0-0.2c-0.1,0-0.5-0.1-0.6,0c-0.1,0-0.4,0.4-0.5,0.8c0,0.1-0.1,0.2-0.1,0.2c-0.1,0.1-0.2,0.2,0,0.4
			c0.3,0.2,0.4,0.2,0.5,0.2C12.7,44.5,13.2,43.5,13.2,43.2z"/>
		<path d="M13.2,43L13.2,43L13.2,43z"/>
		<path d="M13.3,43.1c0,0,0.3-0.3,0.5-0.3s0.3,0.5,0.3,0.5s0.3-0.3,0.5-0.2c0.2,0,0.3,0.6,0.3,0.6s0.4-0.3,0.6-0.3s0.4,0.8,0.4,0.8
			s0.4-0.5,0.6-0.5c0.2,0.1,0.5,0.8,0.5,0.8s0.7-0.5,0.9-0.4c0.2,0,0.3,0.6,0.3,0.6s0.5-0.5,0.8-0.4c0.4,0.1,0.6,0.8,0.6,0.8
			s0.6-0.7,0.8-0.6c0.2,0.1,0.6,0.7,0.6,0.7s0.8-0.7,1-0.6c0.2,0.1,1,0.8,1,0.8s0.6-0.6,0.9-0.7c0.2,0,1,0.6,1,0.6s0.4-0.6,0.7-0.7
			c0.2,0,0.8,0.8,0.8,0.8s0.3-0.8,0.6-0.8c0.3,0,0.8,0.6,0.8,0.6s0.2-0.7,0.7-0.5c0.2,0.1,0.5,0.4,0.5,0.4s0.3-0.6,0.5-0.7
			c0.2,0,0.6,0.6,0.6,0.6s0.3-0.7,0.5-0.7s0.5,0.4,0.5,0.4s0.2-0.5,0.3-0.5c0.2,0,0.5,0.3,0.5,0.3s0.2-0.4,0.4-0.4
			c0.2,0,0.5,0.4,0.5,0.4s0-0.3,0.3-0.3c0.3-0.1,0.4,0.2,0.6,0.1c0.2-0.1-1.3-2.4-1.1-3c0.2-0.6,0.2-3.1,0.7-3.4
			c0.8,0.1,1.9,0.6,2.6,2c1,1,2.6,1.2,3.9,0.9c1.3-0.2,2-0.7,2.5-0.4c0.9,0,1.4-1.4,1.4-2c0.1-1.1,1.4-4,1.4-4.4
			c0-0.5,0.2-3,0.6-3.6c-0.1-1,2.6-5.6,0.3-13.9c-1.2-3.5-2.5-9.7-9.2-13C29.9,0.3,24,0,24,0s-5.9-0.4-12.9,1.8
			c-6.8,2.3-8.5,8.3-9.8,11.6C-1.2,20.7,0.7,25.5,0.9,27c-0.1-0.3-0.2-0.5-0.3-0.7c0.2,0.3,0.2,1,0.3,1.4C1,28,1,28.2,1.1,28.5
			c0.1,1.3,0.1,3.4,0.1,3.8c-0.1,0.9-0.6,3.1,1.3,3.4c-0.1,0.6,0.4,2,1.3,2.2c0.5-0.3,1.1,0.4,2.5,0.8c1.3,0.5,3,0.5,4-0.4
			c0.8-1.3,1.9-1.6,2.7-1.6c0.5,0.3,0.3,2.8,0.5,3.4s-1.4,2.7-1.2,2.8c0.2,0.1,0.4-0.1,0.6,0C13.3,42.9,13.3,43.1,13.3,43.1z
			 M19.4,28.8c-0.1,0.2-0.2,0.3-0.4,0.5c-1.1,1.2-2.8,1.6-4.4,2.2c-0.3,0.1-0.7,0.4-1,0.5c-0.7,0.2-1.7-0.1-2.4-0.2
			c-0.8,0-1.5-0.1-2.1-0.8c-0.5-0.6-0.4-1.1-0.4-1.8c-0.1-1.7-0.1-3.4,1.5-4.5c1.7-1.3,5.2-1.8,7.6-1.4
			C20.5,23.7,20.5,26.8,19.4,28.8z M21.7,35.3c0.4-0.8,0.9-1.7,1-2.6c0.1-1,1.4-1.1,1.8-0.2c0.4,1,0.5,2.1,0.7,3.2s0.9,1.9,1.1,2.9
			c0.1,0.5,0,1.6-0.8,1.6c-0.7,0-1.2-0.9-2-1s-1.3,0.5-2,0.6c-0.1,0-0.1,0-0.2,0c-0.6-0.1-1.3-0.9-1-1.4c0.2-0.3,0.4-0.5,0.5-0.8
			C21.3,36.9,21.4,36,21.7,35.3z M36.6,32.8c-0.6,0.7-1.8,0.7-2.7,1c-0.6,0.2-1.1,0.5-1.8,0.3c-1.2-0.3-2.7-1.6-3.6-2.4
			c-1-0.9-1.7-2-1.7-3.2c-0.1-2.2,0.4-4.1,3.3-4c2.9,0.2,7.1,1.2,7.2,3.9c0,0.1,0.2,1.2,0.2,1.3C37.9,30.8,37.4,31.9,36.6,32.8z"/>
		<path d="M22.2,48c0.4,0,0.5-0.1,0.5-0.5c0-0.2,0-0.3,0-0.5c0.1-0.4,0.1-0.9,0-1.5c-0.5-0.8-0.9-0.6-0.9-0.6s-0.4,0.2-0.8,0.5
			c-0.3,0.2-0.2,1.6-0.2,2.3h0.1c0,0.1,0.1,0.1,0.3,0.1C21.7,48,21.9,48,22.2,48z"/>
		<path d="M20.4,47.8L20.4,47.8c0.3-0.3,0.4-0.8,0.4-0.8s0.1-1.3,0-1.4c-0.2-0.3-0.1-0.8-0.5-0.9c-0.6,0.5-0.7,0.5-0.8,0.7
			c-0.1,0.2-0.4,1.7-0.3,2c0.1,0,0.1,0.1,0.2,0.1l0,0c0.1,0.1,0.4,0.2,0.5,0.2C20.2,47.8,20.3,47.9,20.4,47.8z"/>
		<path d="M14.3,45.4L14.3,45.4c0.1-0.3,0.5-1.2,0.4-1.6c0-0.2-0.1-0.3-0.1-0.3c-0.1-0.1-0.1,0-0.1,0s0,0,0.1,0c0,0,0,0-0.1,0
			c-0.4-0.1-0.4,0.2-0.4,0.3S14,43.9,14,44c0,0.1-0.1,0.2-0.1,0.3c-0.1,0.1-0.1,0.2-0.2,0.3l0.2-0.9c0,0,0.2-0.4-0.1-0.5
			c-0.3-0.1-0.5,0.2-0.5,0.2S13.2,43.7,13,44c-0.1,0.1-0.2,0.3-0.2,0.5c-0.1,0.2-0.1,0.3-0.1,0.4c0.3,0.2,0.7,0.1,0.8,0.1l0,0
			c0,0.2-0.1,0.3,0,0.3C13.7,45.3,14.2,45.4,14.3,45.4C14.3,45.5,14.3,45.4,14.3,45.4L14.3,45.4z"/>
	</g>
</g>
</svg>
