<?xml version="1.0" encoding="utf-8"?>
<!-- Generator: Adobe Illustrator 23.0.3, SVG Export Plug-In . SVG Version: 6.00 Build 0)  -->
<svg version="1.1" id="Layer_1" xmlns="http://www.w3.org/2000/svg" xmlns:xlink="http://www.w3.org/1999/xlink" x="0px" y="0px"
	 viewBox="0 0 37.9 19.3" style="enable-background:new 0 0 37.9 19.3;" xml:space="preserve">
<path d="M3.9,18.3C4.8,18.1,6.5,17,7,16.8c0.4-0.2,0.9-0.5,1.4-0.5c0.1,0,0.2,0,0.2,0c1.2,0.6,3.4,1.3,3.9,1.5s1.8-0.4,2.4-0.9
	c0.6-0.4,0.7-0.6,0.9-1.3c-0.1-1-1-1.3-1.6-1.6c-0.6-0.4-1,0.3-1.7,0.8c-0.6,0.3-1,0.2-1.7-0.1c-2.4-1-2.7-0.7-3.5-0.8
	C6.9,14,5.7,14.4,5,15c-0.7,0.6-2.3,1.4-3.4,1.6c-2.3,0-1.5,1.2-1.5,1.2s0.1,0.4,1,0.8C2.1,18.8,3,18.4,3.9,18.3z"/>
<path d="M25.5,17.9c0.5-0.1,2.6-0.7,3.9-1.3c0.1,0,0.2,0,0.3,0c0.4,0.1,1,0.3,1.3,0.6c0.5,0.3,2.2,1.5,3.1,1.7s1.8,0.6,2.7,0.3
	c0.9-0.3,1-0.7,1-0.7s0.7-1.2-1.5-1.3c-1.2-0.3-2.8-1.2-3.5-1.8c-0.7-0.6-1.9-1.1-2.3-1.2c-0.8,0.1-1.1-0.2-3.4,0.7
	c-0.7,0.2-1.1,0.3-1.7,0c-0.7-0.6-1.1-1.2-1.7-0.8c-0.6,0.3-1.5,0.6-1.5,1.6c0.2,0.7,0.3,0.9,0.9,1.4C23.7,17.4,25,18,25.5,17.9z"/>
<path d="M15.3,3.5c0.3-0.2,0.2-0.4,0.4-0.7c0.2-0.1,0.7,0.3,1.6,0.9c0.5,0.3,1.1,0.4,1.6,0.5l0,0c0.4,0,1-0.1,1.4-0.4
	c0.2-0.1,0.3-0.2,0.5-0.3c0.1,0,0.2-0.1,0.3-0.2C21.3,3.1,21.5,3,21.7,3s0.3,0.1,0.4,0.3l0,0c0,0.1,0.1,0.3,0.3,0.4
	c0.3,0.2,0.8,0.2,1.4,0.1s1.4-0.2,1.4-0.6s-0.6-1-0.9-1.1c-0.2-0.1-0.7-0.1-1-0.2c-0.3,0-0.6-0.3-0.8-0.6C22.3,1,22.3,0.6,22,0.4
	c-0.3-0.2-0.9-0.3-0.9-0.3S20.5,0,19.9,0.5c-0.2,0.2-0.4,0.3-0.6,0.4S18.9,1,18.7,1c-0.1,0-0.3-0.1-0.5-0.1
	c-0.2-0.1-0.3-0.2-0.5-0.4C17.1-0.1,16.5,0,16.5,0s-0.6,0.1-0.9,0.2c-0.3,0.2-0.3,0.6-0.4,0.9c-0.2,0.3-0.5,0.6-0.8,0.6
	s-0.7,0.1-1,0.1c-0.2,0.1-0.8,0.6-0.8,1s0.8,0.5,1.4,0.7C14.5,3.7,14.9,3.7,15.3,3.5z"/>
<path d="M14.5,8.5c0.3,0.1,0.1,0.3,0.6,0.7c0.2,0,0.8-0.3,1.5-0.2c0.7,0.4,1.7,0.5,2.3,0.5l0,0c0.6,0,1.5-0.1,2.1-0.4
	c0.8-0.1,1.3,0.3,1.5,0.2C23,9,22.8,8.7,23.1,8.7c0.3-0.1,1.1,0,1.5,0c0.7-0.3,1.4-0.7,1.3-1c-0.4-0.3-1.1-0.5-1.5-1.1
	S23.8,5.2,23,4.9c-0.8-0.4-1.1-0.3-1.1-0.3s-0.3-0.4-1.8,0.6c-0.5,0.1-1,0.1-1.4,0l0,0l0,0h-0.1l0,0c-0.4,0.1-0.9,0-1.4-0.1
	c-1.6-1-1.8-0.7-1.8-0.7s-0.3-0.2-1.1,0.3c-0.7,0.3-0.9,1-1.3,1.6s-1,0.8-1.4,1.1c-0.1,0.3,0.6,0.7,1.4,1.1
	C13.4,8.5,14.2,8.5,14.5,8.5z"/>
<path d="M11.7,13.2c0.3-0.4,0.7-0.6,1-0.5s1,0.1,1.2-0.1c0.5,0.3,0.5,0.2,1.4,1.3c1.1,0.8,1.8,1.5,3.7,1.3c1.7,0.2,2.4-0.5,3.5-1.2
	c0.8-1,0.9-1,1.3-1.3c0.3,0.2,0.9,0.2,1.3,0.1c0.3-0.1,0.7,0.1,1,0.6c0.3,0.1,0.9-0.1,1-0.6s-0.3-1-1-1.3c0,0-0.1,0-0.1-0.1
	c-0.2-0.2-0.3-0.3-0.6-0.5c-0.4-0.3-0.7-0.6-0.7-0.6s-0.4,0-0.7,0c-0.2,0-1.1,0.4-1.7,0.8c-0.8,0.4-1.2,0.3-2.1,0.6
	c-0.8,0-1.2,0.1-1.3,0.2c-0.2-0.1-0.6-0.2-1.3-0.2c-0.9-0.3-1.3-0.2-2.1-0.6c-0.6-0.4-1.5-0.9-1.7-0.9s-0.7,0-0.7,0
	s-0.9,0.7-1.4,1.1c-0.7,0.3-1,0.8-0.9,1.3C10.9,13.1,11.4,13.3,11.7,13.2z"/>
<path d="M21.4,15.2c-0.5,0.2-1.8,0.5-2.2,0.3c-0.1,0-0.3,0-0.4,0l0,0h-0.2c-0.4,0.2-1.7-0.2-2.2-0.3c-0.4-0.1-0.5,0.6-0.5,0.6
	s-0.3,0.6-0.1,0.9c0.2,0.3,1.1,0.4,1.7,0.5s1.3,0,1.4,0c0.3,0,0.8,0.1,1.2,0c0.6-0.1,1.5-0.1,1.7-0.5c0.2-0.3-0.1-0.9-0.1-0.9
	S21.8,15.2,21.4,15.2z"/>
<path d="M21.1,9.6c-0.5,0.1-1,0.3-1.4,0.2c-0.2,0-0.6,0-0.9,0l0,0c-0.2,0-0.5,0-0.7,0c-0.5,0.1-0.9-0.1-1.4-0.3
	c-0.5-0.2-1.4,0-1.4,0c-0.1,0.2-0.3,0.7,0,1s0.4,0.3,0.7,0.5c0.3,0.1,2.4,0.8,2.8,0.5l0,0h0.1H19c0.5,0.3,2.5-0.3,2.8-0.4
	s0.4-0.1,0.7-0.4c0.3-0.3,0.1-0.9,0-1C22.5,9.6,21.6,9.4,21.1,9.6z"/>
<path d="M18.7,4.4c-0.3-0.1-1.3-0.4-1.6-0.6c-0.3-0.2-0.9-0.4-1.2-0.6c-0.2,0-0.3,0.5-0.3,0.5s0.3,0.3,0.6,0.4
	c0.3,0.1,1,0.6,1.2,0.8c0.2,0.2,1.3,0,1.3,0l0,0l0,0c0.3,0.1,1,0.2,1.2,0s0.9-0.7,1.2-0.8c0.3,0,0.6-0.3,0.6-0.3s-0.1-0.5-0.3-0.5
	c-0.3,0.1-0.8,0.3-1.2,0.5C20,4,18.9,4.3,18.7,4.4z"/>
</svg>
