<?xml version="1.0" encoding="utf-8"?>
<!-- Generator: Adobe Illustrator 23.0.3, SVG Export Plug-In . SVG Version: 6.00 Build 0)  -->
<svg version="1.1" id="Layer_1" xmlns="http://www.w3.org/2000/svg" xmlns:xlink="http://www.w3.org/1999/xlink" x="0px" y="0px"
	 viewBox="0 0 25.4 103.8" style="enable-background:new 0 0 25.4 103.8;" xml:space="preserve">
<path d="M12.9,103.8l3.8-3.5l4.8-1.2l0.8,0.6c1-0.1,1.7-0.9,1.1-2.3c-0.8-1.7-1.9-3.8-1.9-4.7s-0.9-3.5-1.1-4.7
	c-0.7-3.2-0.7-3.9-1.3-6.8c-0.3-1.5-0.1-11.8-0.7-22.3c-0.5-9.6-0.9-13.1-1.9-18.8c-1.1-5.7-0.9-18.4-0.3-21.4c0-0.1,0-0.1,0-0.2
	c0.3,0.2,0.6,0.3,1,0.3c0.9,0,0.4-1.3,0.3-1.9c0-0.4,0.1-1.2,0.2-1.8c0.1,0.3,0.2,0.7,0.4,1.2c-0.3,1.3-0.1,2,0.5,1.9
	c0.9,3.4,1.8,8.3,1.5,11.5c0.2,3.6,1,19.5,1.1,22.5c0.4,3.8,0.8,10.5,0.7,12.2c-0.1,2.3,0.2,7.3,0.2,10.4
	c-0.1,3.1,0.3,11.3,0.4,12.7c0,1.4-0.1,4.9,0.5,6.4c0.4,1,1,2.8,1.5,4.1l0.8-3.3c0-0.2-0.1-0.5-0.1-0.9c-0.1-3.8,0.3-10.6,0.1-13.3
	c-0.2-3.3,0.2-13.2,0.1-15.9c-0.3-3.1-1.2-13.1-1.1-14.5c0-1.3-0.2-11.3-0.4-13.1c-0.1-2.3-1.2-15.4-1-16.2c0.2-0.6,1-3.8,1.2-5.7
	c0.1-0.1,0.3-0.2,0.4-0.3L21.3,9l0.6-0.9c-0.3,0.2-0.6,0.5-1,0.7c-0.4-0.1-0.8,0-1.2,0.6c-0.1,0.1-0.2,0.2-0.3,0.3
	c-0.5,0.3-1.1,0.5-1.7,0.8c0.3-0.6,1-0.8,1.6-1.6c0.4-0.2,0.8-0.4,1.2-0.7c1.9-1.4,2.9-2.4,3.2-2.7l0.1-0.1c0,0-0.1-0.1-0.1-0.3
	L21,1.3L16.2,0l-2.7,2.8c-0.1,0.1-0.1,0.2-0.2,0.3h-0.1l-0.3,0.3L8.6,3.2c-0.1,0-0.1,0.1-0.2,0.1c-1,0.2-2,0.3-2.5,0.2
	C5.6,3.7,5.5,4.2,5.6,4.8C4.2,5.4,2.7,5.7,1.3,5.3c-1.6-0.5-1.4,1.9-0.9,3.3c1.6,1.8,3.8,4,4.2,5.8c0.8,2.7,3.8,16.3,4.3,20.5
	c0.9,6.2,2.2,17.5,3.2,21.6c0.4,5.9,1.7,17.4,1.4,22.9c0.2,6.1,0.2,11.7-0.7,13.9c-0.7,3.7-1.7,7-1.3,9.5c0.1,0.3,0.2,0.6,0.3,0.8
	L12.9,103.8z"/>
</svg>
