<?xml version="1.0" encoding="utf-8"?>
<!-- Generator: Adobe Illustrator 23.0.3, SVG Export Plug-In . SVG Version: 6.00 Build 0)  -->
<svg version="1.1" id="Layer_1" xmlns="http://www.w3.org/2000/svg" xmlns:xlink="http://www.w3.org/1999/xlink" x="0px" y="0px"
	 viewBox="0 0 27.2 117.1" style="enable-background:new 0 0 27.2 117.1;" xml:space="preserve">
<g>
	<path d="M18.1,84.8c-0.9-5.3-0.8-16.7-1.2-22.5c0.5-4.1,0.5-15.3,0.8-21.5c0-4.2,1.5-17.8,2-20.5c0-0.3,0.2-0.7,0.3-1.1
		c0.6,0.1,1.2,0.1,1.8,0.1l1.1-5.4l3.6-2.9l0.3,0.4c0.7-1.4,0.3-5.2,0.3-5.2s-1.3-0.5-4-1c1.1-0.3,1.8-0.4,1.8-0.4S24.2,4.2,23.4,4
		c-1-0.9-7.3-1.7-7.9-1.8c-0.6-0.2-1.8-1.5-2-2.1C13.4-0.4,7.6,1.3,6.4,1C2.5,4,3.9,8.9,8.8,9.4c-1.1-0.1,2.4-1.1,6.4-2.2
		c-0.1,0.1-0.2,0.2-0.3,0.3c0.2,1,0.6,1.8,0.9,2.6c-1.3-0.3-2.6-0.7-3.3-1c-1.2,1.5-9.2,1.8-9.2,1.8s-0.2,3.2,0.5,4.7s2,1.5,2.5,2.4
		c1.2,2.3,1.4,4.7,2.3,7.6c1,3,2.6,15.3,2.2,21c-0.5,5.7-0.4,9.2,0.2,18.6c0.6,10.4,2,20.4,1.8,21.9c-0.3,2.9-0.2,3.6-0.6,6.8
		c-0.2,1.2-0.7,3.8-0.6,4.7s-0.8,2.9-1.4,4.7c-0.1,0.1-0.4,0.2-0.8,0.5c0.3-1.3,0.7-2.8,0.9-3.8c0.4-1.5-0.1-4.9-0.2-6.3
		C10,92.4,9.5,84.3,9,81.3c-0.4-3-0.7-8-1-10.2c-0.4-1.7-0.7-8.3-0.7-12C7,56.1,6,40.5,5.9,36.9c-1-4.7,0.4-13.3,0.9-15
		C7.1,19.8,6.3,19,6,18.2C5.5,18,5.3,17.9,4,17c-1.1-1.3-2.1,0.2-2.1,0.2S1.5,17.8,1.4,18c-0.1,0.2-1.1,2.7-1.4,3.8
		c-0.2,1.1,1.7,6,2,6.7s0.7,13.7,0.9,16C3,46.3,3.8,56.1,4,57.4s0.5,11.2,0.5,14.3c0.1,2.7,1.7,12.4,1.9,15.6
		c0.1,2.7,1.3,9.3,1.6,13c0.2,2.5-0.8,1.5-1.6,4.5c-1.1,4.4,0.4,5.5,1.2,6.4c0.8,1,1.1,0.6,1.2-0.7c-0.9-0.6-0.6-2.2-0.2-3.7
		c0.2,0.3,0.6,0.6,0.9,0.8c0.9,0.3,2.2,2.9,2.2,4.6c-0.3,1.2,0.9,4.3,2.3,4.8c0.1,0,0.1,0,0.2,0c0.2,0.1,0.5,0.1,0.9,0
		c1.7-0.1,2.2-1,3.9-3.4c1.4-2.6-2-5.2-2.8-6.3c0-0.4-0.1-0.8-0.2-1.3c0.1,0,0.3,0,0.4,0c0.5,0.1,0.9,0.1,1.4,0c0.9,0,3,1.9,3.7,3
		s0.7,1.1,1.3-1.7c0.1-2.5-1.3-5.7-2.4-9.2C19.2,96.3,18.6,90.8,18.1,84.8z"/>
</g>
</svg>
