<?xml version="1.0" encoding="utf-8"?>
<!-- Generator: Adobe Illustrator 23.0.3, SVG Export Plug-In . SVG Version: 6.00 Build 0)  -->
<svg version="1.1" id="Layer_1" xmlns="http://www.w3.org/2000/svg" xmlns:xlink="http://www.w3.org/1999/xlink" x="0px" y="0px"
	 viewBox="0 0 22.3 123.2" style="enable-background:new 0 0 22.3 123.2;" xml:space="preserve">
<path d="M11.6,2.5c-0.8,0.8-2,3.6-2,3.6s-0.9,0.7-1,1.3c-1.6,2.1-2,4.5-1.9,4.7c0.2,0.3-1.9,3.6-4.3,7.1c-0.1,3.1,1.8,5.9,2.5,10.7
	C5.5,34.5,6,40.5,6.1,46c0.3,4.8-0.7,21,0.3,27.1c0.4,10.6-0.7,32.1-0.8,35.7c0,0.8-3.7,2.5-4.8,5c-1.1,2.5-0.8,7.9-0.5,8.9
	s1.4,0.3,3-1.5c0-1,3.2-7.4,5.1-10.1c0.9-0.8,5.9,0,5.9,0s1.4,1.4,2.5,2.9l0.3,0.3l5.2,0.6c0-1.2-1-2.9-2.1-6.6
	c-1.5-3.2-1.9-10.5-2.8-12.9s-0.2-16.7-1.5-22.5c-2.3-5.8-1.2-36.2-1-41c1.3-3.1,3.1-7.1,4.4-7.7c1.2-0.6-0.8-5.1-1.6-7.2
	c-0.7-1.1,2.1-1.1,3.5-2.6c-0.8-1.6-4.4-8.2-4.4-8.2s-1.7,1-3.9,1.3l0,0C13.8,6.8,15,6,15.4,5.8c0.8-0.6,2.8-1.9,3.5-2.7
	c0.6-1,0.7-1.7,0.1-2.3c-0.6-0.6-0.7-0.9-1.9-0.8C16.1,0.3,12.4,1.6,11.6,2.5z"/>
</svg>
