<?xml version="1.0" encoding="utf-8"?>
<!-- Generator: Adobe Illustrator 23.0.3, SVG Export Plug-In . SVG Version: 6.00 Build 0)  -->
<svg version="1.1" id="Layer_1" xmlns="http://www.w3.org/2000/svg" xmlns:xlink="http://www.w3.org/1999/xlink" x="0px" y="0px"
	 viewBox="0 0 37.1 119.2" style="enable-background:new 0 0 37.1 119.2;" xml:space="preserve">
<path d="M20.1,116c0.1-1.4,0.1-3,0-4.2l-0.8-2.1l2.1-2.6c0.8-1.1,1.5-2,1.5-2s2.5-0.7,4.2-0.8l1.9-0.4l2,3.3
	c0.1,0.2,0.3,0.4,0.4,0.6l5.7-0.4c-0.2-0.4-0.3-0.8-0.5-1.2c-1.4-2.4-5.2-3.6-5.3-4.4c-0.4-3.5-3.9-24.7-4.7-35.2
	c0.3-6.2-2.5-22.1-2.7-26.9c-0.1-0.9-0.1-1.8-0.2-2.7c0-0.3,0.1-0.7,0.1-1c0-1-0.1-2.1-0.3-3.1c-0.1-3.3-0.2-6.6-0.1-9.3
	c0.2-4.9,1.8-7.9,1.3-10.9c-2.8-3.2-5.2-6.2-5.1-6.5c0.2-0.3-1.2-4.7-5.1-6.2c-1.6,2.5-0.6,1.7-1.6,2.5c-1.7-0.1-3.2-0.6-3.8-0.8
	c0-0.1,0-0.1,0-0.2C8.7-0.3,7,1.3,7,1.3S4.1,1.9,3.1,2.5c-0.9,0.6-2.8,3.9-3,5s0,1.4,0.5,2c0.5,0.7,1.2,0.8,2.2,0.4
	C3.7,9.5,5.3,7.7,6,7.1c0.2-0.3,0.6-0.7,1.1-1.2c-0.7,1.8-1.4,3.6-1.7,4.3c1.6,1.3,4.4,1.1,3.8,2.2c-0.5,2.2-2.1,6.9-0.8,7.3
	c1.3,0.4,3.6,4.2,5.2,7.1c0.7,4.7,5.2,34.7,3.5,40.7c-0.6,6,1.7,20,1,22.5s-0.3,9.7-1.4,13.1c-0.9,4.8-2,6.4-1.1,7.6
	c0,1.3,0.3,2.6,0.7,3.8c0.3,0.8,0.6,1.7,1.1,2.4c0.5,0.9,0.8,1.7,1,2.3L20.1,116z"/>
</svg>
